<?xml version="1.0" encoding="utf-8"?>
<!-- Generator: Adobe Illustrator 18.1.1, SVG Export Plug-In . SVG Version: 6.00 Build 0)  -->
<!DOCTYPE svg PUBLIC "-//W3C//DTD SVG 1.1//EN" "http://www.w3.org/Graphics/SVG/1.1/DTD/svg11.dtd">
<svg version="1.1" id="Layer_1" xmlns="http://www.w3.org/2000/svg" xmlns:xlink="http://www.w3.org/1999/xlink" x="0px" y="0px"
	 viewBox="-88.5 98.4 566.9 379.8" enable-background="new -88.5 98.4 566.9 379.8" xml:space="preserve">
<g id="Document" transform="scale(1 -1)">
	<g id="Spread" transform="translate(0 -595.277)">
		<g id="Frame">
			<path marker-end="none" marker-start="none" fill="none" stroke="#000000" stroke-width="3" stroke-miterlimit="79.8403" d="
				M-59.7,118.5h509.2c15.1,0,27.3,12.3,27.3,27.3V468c0,15.1-12.3,27.3-27.3,27.3H-59.7c-15.1,0-27.3-12.3-27.3-27.3V145.8
				C-87,130.7-74.8,118.5-59.7,118.5z"/>
			<path marker-end="none" marker-start="none" fill="none" stroke="#000000" stroke-width="1.126" stroke-miterlimit="79.8403" d="
				M-33.5,136.8h455.9v341.4H-33.5V136.8z"/>
			<path marker-end="none" marker-start="none" fill="none" stroke="#000000" stroke-width="0.659" stroke-miterlimit="79.8403" d="
				M-60.9,304.4c-1.6,1.2-2,3.4-0.8,5c1.2,1.6,3.4,2,5,0.8c1.6-1.2,2-3.4,0.8-5C-57,303.6-59.3,303.2-60.9,304.4z"/>
			<path marker-end="none" marker-start="none" fill="none" stroke="#000000" stroke-width="1.402" stroke-miterlimit="79.8403" d="
				M442.1,318.8c6.5,5.2,16,4,21.2-2.5c5.2-6.5,4-16.1-2.5-21.2c-6.5-5.2-16-4-21.2,2.5C434.4,304.1,435.5,313.6,442.1,318.8z"/>
			<path marker-end="none" marker-start="none" fill="none" stroke="#000000" stroke-width="0.75" stroke-miterlimit="79.8403" d="
				M446.4,310.4v-6.9c0-0.8,0.6-1.4,1.4-1.4h7.2c0.8,0,1.4,0.6,1.4,1.4v6.9c0,0.8-0.6,1.4-1.4,1.4h-7.2
				C447,311.8,446.4,311.1,446.4,310.4z"/>
		</g>
	</g>
</g>
</svg>
