<?xml version="1.0" encoding="utf-8"?>
<!-- Generator: Adobe Illustrator 18.1.1, SVG Export Plug-In . SVG Version: 6.00 Build 0)  -->
<!DOCTYPE svg PUBLIC "-//W3C//DTD SVG 1.1//EN" "http://www.w3.org/Graphics/SVG/1.1/DTD/svg11.dtd">
<svg version="1.1" id="Layer_1" xmlns="http://www.w3.org/2000/svg" xmlns:xlink="http://www.w3.org/1999/xlink" x="0px" y="0px"
	 viewBox="-146.6 24.7 683.2 527.2" enable-background="new -146.6 24.7 683.2 527.2" xml:space="preserve">
<g id="Document" transform="scale(1 -1)">
	<g id="Spread" transform="translate(0 -595.277)">
		<g id="Frame">
			<path marker-end="none" marker-start="none" fill="none" stroke="#000000" stroke-width="3" stroke-miterlimit="79.8403" d="
				M-122,44.8h633.9c12.8,0,23.1,10.4,23.1,23.1v478c0,12.8-10.4,23.1-23.1,23.1H-122c-12.8,0-23.1-10.4-23.1-23.1v-478
				C-145.1,55.2-134.8,44.8-122,44.8z"/>
			<path marker-end="none" marker-start="none" fill="none" stroke="#000000" stroke-width="1.126" stroke-miterlimit="79.8403" d="
				M-84.5,97.8h558.7v418.9H-84.5V97.8z"/>
			<path marker-end="none" marker-start="none" fill="none" stroke="#000000" stroke-width="0.659" stroke-miterlimit="79.8403" d="
				M-117.9,304.4c-1.6,1.2-2,3.4-0.8,5c1.2,1.6,3.4,2,5,0.8c1.6-1.2,2-3.4,0.8-5C-114,303.6-116.3,303.2-117.9,304.4z"/>
			<path marker-end="none" marker-start="none" fill="none" stroke="#000000" stroke-width="1.402" stroke-miterlimit="79.8403" d="
				M496.8,318.8c6.5,5.2,16,4,21.2-2.5c5.2-6.5,4-16.1-2.5-21.2c-6.5-5.2-16-4-21.2,2.5C489.1,304.1,490.3,313.6,496.8,318.8z"/>
			<path marker-end="none" marker-start="none" fill="none" stroke="#000000" stroke-width="0.75" stroke-miterlimit="79.8403" d="
				M501.2,310.4v-6.9c0-0.8,0.6-1.4,1.4-1.4h7.2c0.8,0,1.4,0.6,1.4,1.4v6.9c0,0.8-0.6,1.4-1.4,1.4h-7.2
				C501.8,311.8,501.2,311.1,501.2,310.4z"/>
		</g>
	</g>
</g>
</svg>
