<?xml version="1.0" encoding="utf-8"?>
<!-- Generator: Adobe Illustrator 18.1.1, SVG Export Plug-In . SVG Version: 6.00 Build 0)  -->
<!DOCTYPE svg PUBLIC "-//W3C//DTD SVG 1.1//EN" "http://www.w3.org/Graphics/SVG/1.1/DTD/svg11.dtd">
<svg version="1.1" id="Layer_1" xmlns="http://www.w3.org/2000/svg" xmlns:xlink="http://www.w3.org/1999/xlink" x="0px" y="0px"
	 viewBox="213.5 -60.2 575.7 746.1" enable-background="new 213.5 -60.2 575.7 746.1" xml:space="preserve">
<g id="Document" transform="scale(1 -1)">
	<g id="Spread" transform="translate(0 -595.277)">
		<g id="Frame">
			<path marker-end="none" marker-start="none" fill="none" stroke="#000000" stroke-width="3" stroke-miterlimit="79.8403" d="
				M215,628.8V-63.8c0-14,11.4-25.2,25.2-25.2h522.2c14,0,25.2,11.4,25.2,25.2v692.6c0,14-11.4,25.2-25.2,25.2H240.2
				C226.3,654,215,642.8,215,628.8z"/>
			<path marker-end="none" marker-start="none" fill="none" stroke="#000000" stroke-width="1.126" stroke-miterlimit="79.8403" d="
				M272.9,587.8V-22.6h457.7v610.4H272.9z"/>
			<path marker-end="none" marker-start="none" fill="none" stroke="#000000" stroke-width="0.659" stroke-miterlimit="79.8403" d="
				M498.6,624.3c1.3,1.7,3.7,2.2,5.5,0.9s2.2-3.7,0.9-5.5s-3.7-2.2-5.5-0.9C497.7,620,497.3,622.6,498.6,624.3z"/>
			<path marker-end="none" marker-start="none" fill="none" stroke="#000000" stroke-width="1.402" stroke-miterlimit="79.8403" d="
				M514.3-47.3c5.7-7.1,4.4-17.5-2.7-23.2c-7.1-5.7-17.6-4.4-23.2,2.7c-5.7,7.1-4.4,17.5,2.7,23.2C498.3-38.9,508.7-40.2,514.3-47.3
				z"/>
			<path marker-end="none" marker-start="none" fill="none" stroke="#000000" stroke-width="0.75" stroke-miterlimit="79.8403" d="
				M505.2-52.1h-7.5c-0.9,0-1.5-0.7-1.5-1.5v-7.9c0-0.9,0.7-1.5,1.5-1.5h7.5c0.9,0,1.5,0.7,1.5,1.5v7.9
				C506.7-52.8,505.9-52.1,505.2-52.1z"/>
		</g>
	</g>
</g>
</svg>
