<?xml version="1.0" encoding="utf-8"?>
<!-- Generator: Adobe Illustrator 18.1.1, SVG Export Plug-In . SVG Version: 6.00 Build 0)  -->
<!DOCTYPE svg PUBLIC "-//W3C//DTD SVG 1.1//EN" "http://www.w3.org/Graphics/SVG/1.1/DTD/svg11.dtd">
<svg version="1.1" id="Layer_1" xmlns="http://www.w3.org/2000/svg" xmlns:xlink="http://www.w3.org/1999/xlink" x="0px" y="0px"
	 viewBox="-161.6 49.5 220.6 448.2" enable-background="new -161.6 49.5 220.6 448.2" xml:space="preserve">
<g id="Document" transform="scale(1 -1)">
	<g id="Spread" transform="translate(0 -841.891)">
		<g id="Layer_1_1_">
			<path marker-end="none" marker-start="none" fill="none" stroke="#000000" stroke-width="0.75" stroke-miterlimit="79.8403" d="
				M55.9,706.1v-27.4c0-0.3,0.3-0.6,0.6-0.6h1.5c0.3,0,0.6,0.3,0.6,0.6v27.4c0,0.3-0.3,0.6-0.6,0.6h-1.5
				C56.1,706.7,55.9,706.4,55.9,706.1z"/>
			<path marker-end="none" marker-start="none" fill="none" stroke="#000000" stroke-width="0.75" stroke-miterlimit="79.8403" d="
				M-161.3,705.2V679c0-0.3,0.3-0.6,0.6-0.6h1.5c0.3,0,0.6,0.3,0.6,0.6v26.2c0,0.3-0.3,0.6-0.6,0.6h-1.5
				C-161,705.8-161.3,705.6-161.3,705.2z"/>
			<path marker-end="none" marker-start="none" fill="none" stroke="#000000" stroke-width="0.75" stroke-miterlimit="79.8403" d="
				M-161.3,670v-26.2c0-0.3,0.3-0.6,0.6-0.6h1.5c0.3,0,0.6,0.3,0.6,0.6V670c0,0.3-0.3,0.6-0.6,0.6h-1.5
				C-161,670.6-161.3,670.3-161.3,670z"/>
			<path marker-end="none" marker-start="none" fill="none" stroke="#000000" stroke-width="0.75" stroke-miterlimit="79.8403" d="
				M-161.3,739.3v-14.1c0-0.5,0.4-0.9,0.9-0.9h2.9c0.5,0,0.9,0.4,0.9,0.9v14.1c0,0.5-0.4,0.9-0.9,0.9h-2.9
				C-160.9,740.2-161.3,739.8-161.3,739.3z"/>
			
				<path marker-end="none" marker-start="none" fill="#FFFFFF" stroke="#000000" stroke-width="2.277" stroke-linecap="round" stroke-miterlimit="79.8403" d="
				M-159.1,760V376.5c0-17.2,14-31.2,31.2-31.2H24.9c17.2,0,31.2,14,31.2,31.2V760c0,17.2-14,31.2-31.2,31.2h-152.8
				C-145.1,791.2-159.1,777.3-159.1,760z"/>
			<path marker-end="none" marker-start="none" fill="none" stroke="#000000" stroke-width="0.501" d="M-53.3,779.7
				c1,0.9,2.6,0.8,3.5-0.2c0.9-1,0.8-2.6-0.2-3.5c-1-0.9-2.6-0.8-3.5,0.2C-54.5,777.2-54.4,778.8-53.3,779.7z"/>
			<path marker-end="none" marker-start="none" fill="none" stroke="#000000" stroke-width="0.501" d="M-66.9,765.3L-66.9,765.3
				c0-0.8,0.8-1.4,1.7-1.4h26.8c1,0,1.7,0.6,1.7,1.4v0c0,0.8-0.8,1.4-1.7,1.4h-26.8C-66.2,766.7-66.9,766.1-66.9,765.3z"/>
			<path marker-end="none" marker-start="none" fill="none" stroke="#000000" stroke-width="0.501" d="M-84.2,767.6
				c1.3,1.2,3.3,1,4.5-0.3c1.2-1.3,1-3.3-0.3-4.5c-1.3-1.2-3.3-1-4.5,0.3C-85.7,764.5-85.6,766.5-84.2,767.6z"/>
			<path marker-end="none" marker-start="none" fill="none" stroke="#000000" stroke-width="0.687" stroke-miterlimit="79.8403" d="
				M-63.9,383.1c4.5,6.8,13.6,8.7,20.4,4.2c6.8-4.5,8.7-13.6,4.2-20.4c-4.5-6.8-13.6-8.7-20.4-4.2
				C-66.4,367.2-68.3,376.3-63.9,383.1z"/>
			
				<path marker-end="none" marker-start="none" fill="none" stroke="#000000" stroke-width="0.75" stroke-linecap="round" stroke-miterlimit="79.8403" d="
				M-148.3,741.6V399c0-0.5,0.4-0.9,0.9-0.9H44.3c0.5,0,0.9,0.4,0.9,0.9v342.6c0,0.5-0.4,0.9-0.9,0.9h-191.6
				C-147.8,742.5-148.3,742.1-148.3,741.6z"/>
		</g>
	</g>
</g>
</svg>
