<?xml version="1.0" encoding="utf-8"?>
<!-- Generator: Adobe Illustrator 18.1.1, SVG Export Plug-In . SVG Version: 6.00 Build 0)  -->
<!DOCTYPE svg PUBLIC "-//W3C//DTD SVG 1.1//EN" "http://www.w3.org/Graphics/SVG/1.1/DTD/svg11.dtd">
<svg version="1.1" id="Layer_1" xmlns="http://www.w3.org/2000/svg" xmlns:xlink="http://www.w3.org/1999/xlink" x="0px" y="0px"
	 viewBox="111 81 167.9 328.5" enable-background="new 111 81 167.9 328.5" xml:space="preserve">
<g id="Document" transform="scale(1 -1)">
	<g id="Spread" transform="translate(0 -595.277)">
		<g id="Phone">
			<path marker-end="none" marker-start="none" fill="none" stroke="#000000" stroke-width="0.501" d="M223.7,513.2v-0.7
				c0-0.5,0.4-0.8,0.8-0.8h25.4c0.5,0,0.8,0.4,0.8,0.8v0.7c0,0.5-0.4,0.8-0.8,0.8h-25.4C224.1,514.1,223.7,513.7,223.7,513.2z"/>
			<path marker-end="none" marker-start="none" fill="none" stroke="#000000" stroke-width="0.75" stroke-miterlimit="79.8403" d="
				M111.4,482.3v-14.1c0-0.5,0.4-0.9,0.9-0.9h2.9c0.5,0,0.9,0.4,0.9,0.9v14.1c0,0.5-0.4,0.9-0.9,0.9h-2.9
				C111.8,483.2,111.4,482.8,111.4,482.3z"/>
			<path marker-end="none" marker-start="none" fill="none" stroke="#000000" stroke-width="0.75" stroke-miterlimit="79.8403" d="
				M111.4,447.6v-10c0-0.3,0.3-0.6,0.6-0.6h1.5c0.3,0,0.6,0.3,0.6,0.6v10c0,0.3-0.3,0.6-0.6,0.6H112
				C111.6,448.2,111.4,448,111.4,447.6z"/>
			<path marker-end="none" marker-start="none" fill="none" stroke="#000000" stroke-width="0.75" stroke-miterlimit="79.8403" d="
				M111.4,418.7v-10c0-0.3,0.3-0.6,0.6-0.6h1.5c0.3,0,0.6,0.3,0.6,0.6v10c0,0.3-0.3,0.6-0.6,0.6H112
				C111.6,419.3,111.4,419,111.4,418.7z"/>
			
				<path marker-end="none" marker-start="none" fill="#FFFFFF" stroke="#000000" stroke-width="1.989" stroke-linecap="round" stroke-miterlimit="79.8403" d="
				M113.6,487.7V210.6c0-13.1,10.6-23.7,23.7-23.7h116.9c13.1,0,23.7,10.6,23.7,23.7v277.1c0,13.1-10.6,23.7-23.7,23.7H137.3
				C124.2,511.4,113.6,500.8,113.6,487.7z"/>
			
				<path marker-end="none" marker-start="none" fill="none" stroke="#000000" stroke-width="0.75" stroke-linecap="round" stroke-miterlimit="79.8403" d="
				M125.5,455.2V243.1H267v212.1H125.5z"/>
			<path marker-end="none" marker-start="none" fill="none" stroke="#000000" stroke-width="0.735" stroke-miterlimit="79.8403" d="
				M182.5,223.7c4.8,7.3,14.6,9.3,21.9,4.5c7.3-4.8,9.3-14.6,4.5-21.9c-4.8-7.3-14.6-9.3-21.9-4.5
				C179.8,206.6,177.8,216.4,182.5,223.7z"/>
			<path marker-end="none" marker-start="none" fill="none" stroke="#000000" stroke-width="1.125" stroke-miterlimit="79.8403" d="
				M190.7,217.7v-5.4c0-1.3,1-2.3,2.3-2.3h5.4c1.3,0,2.3,1,2.3,2.3v5.4c0,1.3-1,2.3-2.3,2.3h-5.4C191.8,220,190.7,219,190.7,217.7z"
				/>
			<path marker-end="none" marker-start="none" fill="none" stroke="#000000" stroke-width="0.501" d="M165,486.3
				c1.6,1.4,4.1,1.3,5.5-0.3c1.4-1.6,1.3-4.1-0.3-5.5c-1.6-1.4-4.1-1.3-5.5,0.3C163.2,482.4,163.4,484.9,165,486.3z"/>
			<path marker-end="none" marker-start="none" fill="none" stroke="#000000" stroke-width="0.501" d="M180.2,483.5V483
				c0-2,1.6-3.6,3.6-3.6h24c2,0,3.6,1.6,3.6,3.6v0.4c0,2-1.6,3.6-3.6,3.6h-24C181.8,487.1,180.2,485.4,180.2,483.5z"/>
		</g>
	</g>
</g>
</svg>
