<?xml version="1.0" encoding="utf-8"?>
<!-- Generator: Adobe Illustrator 18.1.1, SVG Export Plug-In . SVG Version: 6.00 Build 0)  -->
<!DOCTYPE svg PUBLIC "-//W3C//DTD SVG 1.1//EN" "http://www.w3.org/Graphics/SVG/1.1/DTD/svg11.dtd">
<svg version="1.1" id="Layer_1" xmlns="http://www.w3.org/2000/svg" xmlns:xlink="http://www.w3.org/1999/xlink" x="0px" y="0px"
	 viewBox="111 65 167.8 352.8" enable-background="new 111 65 167.8 352.8" xml:space="preserve">
<g id="Document" transform="scale(1 -1)">
	<g id="Spread" transform="translate(0 -595.277)">
		<g id="Phone">
			<path marker-end="none" marker-start="none" fill="none" stroke="#000000" stroke-width="0.75" stroke-miterlimit="79.8403" d="
				M111.4,479.5v-14.1c0-0.5,0.4-0.9,0.9-0.9h2.9c0.5,0,0.9,0.4,0.9,0.9v14.1c0,0.5-0.4,0.9-0.9,0.9h-2.9
				C111.8,480.4,111.4,480,111.4,479.5z"/>
			<path marker-end="none" marker-start="none" fill="none" stroke="#000000" stroke-width="0.75" stroke-miterlimit="79.8403" d="
				M111.4,446.1v-10c0-0.3,0.3-0.6,0.6-0.6h1.5c0.3,0,0.6,0.3,0.6,0.6v10c0,0.3-0.3,0.6-0.6,0.6H112
				C111.7,446.7,111.4,446.4,111.4,446.1z"/>
			<path marker-end="none" marker-start="none" fill="none" stroke="#000000" stroke-width="0.75" stroke-miterlimit="79.8403" d="
				M111.4,417.1v-10c0-0.3,0.3-0.6,0.6-0.6h1.5c0.3,0,0.6,0.3,0.6,0.6v10c0,0.3-0.3,0.6-0.6,0.6H112
				C111.7,417.7,111.4,417.4,111.4,417.1z"/>
			
				<path marker-end="none" marker-start="none" fill="#FFFFFF" stroke="#000000" stroke-width="1.989" stroke-linecap="round" stroke-miterlimit="79.8403" d="
				M113.7,503.7V202.2c0-13.1,10.6-23.7,23.7-23.7h116.7c13.1,0,23.7,10.6,23.7,23.7v301.5c0,13.1-10.6,23.7-23.7,23.7H137.4
				C124.4,527.4,113.7,516.8,113.7,503.7z"/>
			<path marker-end="none" marker-start="none" fill="none" stroke="#000000" stroke-width="0.501" d="M224.1,529.2v-0.7
				c0-0.5,0.4-0.8,0.8-0.8h25.4c0.5,0,0.8,0.4,0.8,0.8v0.7c0,0.5-0.4,0.8-0.8,0.8h-25.4C224.5,530,224.1,529.7,224.1,529.2z"/>
			
				<path marker-end="none" marker-start="none" fill="none" stroke="#000000" stroke-width="0.75" stroke-linecap="round" stroke-miterlimit="79.8403" d="
				M124.8,478.7V225.8h142v252.9H124.8z"/>
			<path marker-end="none" marker-start="none" fill="none" stroke="#000000" stroke-width="0.735" stroke-miterlimit="79.8403" d="
				M182.6,213.5c4.8,7.3,14.6,9.3,21.9,4.5c7.3-4.8,9.3-14.6,4.5-21.9c-4.8-7.3-14.6-9.3-21.9-4.5
				C179.8,196.4,177.8,206.2,182.6,213.5z"/>
			<path marker-end="none" marker-start="none" fill="none" stroke="#000000" stroke-width="1.125" stroke-miterlimit="79.8403" d="
				M190.8,207.5v-5.4c0-1.3,1-2.3,2.3-2.3h5.4c1.3,0,2.3,1,2.3,2.3v5.4c0,1.3-1,2.3-2.3,2.3h-5.4
				C191.8,209.9,190.8,208.8,190.8,207.5z"/>
			<path marker-end="none" marker-start="none" fill="none" stroke="#000000" stroke-width="0.501" d="M193.7,513.6
				c1.3,1.2,3.4,1,4.5-0.3c1.2-1.3,1-3.4-0.3-4.5c-1.3-1.2-3.4-1-4.5,0.3C192.2,510.4,192.3,512.4,193.7,513.6z"/>
			<path marker-end="none" marker-start="none" fill="none" stroke="#000000" stroke-width="0.501" d="M180.2,498.6v-0.4
				c0-2,1.6-3.6,3.6-3.6h24c2,0,3.6,1.6,3.6,3.6v0.4c0,2-1.6,3.6-3.6,3.6h-24C181.8,502.2,180.2,500.6,180.2,498.6z"/>
		</g>
	</g>
</g>
</svg>
