<?xml version="1.0" encoding="utf-8"?>
<!-- Generator: Adobe Illustrator 18.1.1, SVG Export Plug-In . SVG Version: 6.00 Build 0)  -->
<!DOCTYPE svg PUBLIC "-//W3C//DTD SVG 1.1//EN" "http://www.w3.org/Graphics/SVG/1.1/DTD/svg11.dtd">
<svg version="1.1" id="Layer_1" xmlns="http://www.w3.org/2000/svg" xmlns:xlink="http://www.w3.org/1999/xlink" x="0px" y="0px"
	 viewBox="-148 19 193.2 391.5" enable-background="new -148 19 193.2 391.5" xml:space="preserve">
<g id="Document" transform="scale(1 -1)">
	<g id="Spread" transform="translate(0 -841.891)">
		<g id="Layer_1_1_">
			<path marker-end="none" marker-start="none" fill="none" stroke="#000000" stroke-width="0.75" stroke-miterlimit="79.8403" d="
				M42.2,737.6v-27.4c0-0.3,0.3-0.6,0.6-0.6h1.5c0.3,0,0.6,0.3,0.6,0.6v27.4c0,0.3-0.3,0.6-0.6,0.6h-1.5
				C42.4,738.2,42.2,738,42.2,737.6z"/>
			<path marker-end="none" marker-start="none" fill="none" stroke="#000000" stroke-width="0.75" stroke-miterlimit="79.8403" d="
				M-147.6,736.8v-26.2c0-0.3,0.3-0.6,0.6-0.6h1.5c0.3,0,0.6,0.3,0.6,0.6v26.2c0,0.3-0.3,0.6-0.6,0.6h-1.5
				C-147.3,737.4-147.6,737.1-147.6,736.8z"/>
			<path marker-end="none" marker-start="none" fill="none" stroke="#000000" stroke-width="0.75" stroke-miterlimit="79.8403" d="
				M-147.6,701.6v-26.2c0-0.3,0.3-0.6,0.6-0.6h1.5c0.3,0,0.6,0.3,0.6,0.6v26.2c0,0.3-0.3,0.6-0.6,0.6h-1.5
				C-147.3,702.2-147.6,701.9-147.6,701.6z"/>
			<path marker-end="none" marker-start="none" fill="none" stroke="#000000" stroke-width="0.75" stroke-miterlimit="79.8403" d="
				M-147.6,770.9v-14.1c0-0.5,0.4-0.9,0.9-0.9h2.9c0.5,0,0.9,0.4,0.9,0.9v14.1c0,0.5-0.4,0.9-0.9,0.9h-2.9
				C-147.2,771.8-147.6,771.3-147.6,770.9z"/>
			
				<path marker-end="none" marker-start="none" fill="#FFFFFF" stroke="#000000" stroke-width="1.989" stroke-linecap="round" stroke-miterlimit="79.8403" d="
				M-145.4,794.7v-335c0-15,12.2-27.2,27.2-27.2H15.3c15,0,27.2,12.2,27.2,27.2v335c0,15-12.2,27.2-27.2,27.2h-133.5
				C-133.2,821.9-145.4,809.7-145.4,794.7z"/>
			
				<path marker-end="none" marker-start="none" fill="none" stroke="#000000" stroke-width="0.75" stroke-linecap="round" stroke-miterlimit="79.8403" d="
				M-135.1,773.9V478.5c0-0.5,0.4-0.9,0.9-0.9H31.9c0.5,0,0.9,0.4,0.9,0.9v295.4c0,0.5-0.4,0.9-0.9,0.9h-166.1
				C-134.6,774.8-135.1,774.4-135.1,773.9z"/>
			<path marker-end="none" marker-start="none" fill="none" stroke="#000000" stroke-width="0.687" stroke-miterlimit="79.8403" d="
				M-63.4,464.4c4.5,6.8,13.6,8.7,20.4,4.2c6.8-4.5,8.7-13.6,4.2-20.4c-4.5-6.8-13.6-8.7-20.4-4.2C-66,448.5-67.9,457.6-63.4,464.4z
				"/>
			<path marker-end="none" marker-start="none" fill="none" stroke="#000000" stroke-width="0.501" d="M-52.4,811.3
				c1,0.9,2.6,0.8,3.5-0.2c0.9-1,0.8-2.6-0.2-3.5c-1-0.9-2.6-0.8-3.5,0.2C-53.5,808.8-53.4,810.4-52.4,811.3z"/>
			<path marker-end="none" marker-start="none" fill="none" stroke="#000000" stroke-width="0.501" d="M-66,796.8L-66,796.8
				c0-0.8,0.8-1.4,1.7-1.4h26.8c1,0,1.7,0.6,1.7,1.4v0c0,0.8-0.8,1.4-1.7,1.4h-26.8C-65.2,798.2-66,797.6-66,796.8z"/>
			<path marker-end="none" marker-start="none" fill="none" stroke="#000000" stroke-width="0.501" d="M-83.3,799.2
				c1.3,1.2,3.3,1,4.5-0.3c1.2-1.3,1-3.3-0.3-4.5c-1.3-1.2-3.3-1-4.5,0.3C-84.7,796-84.6,798-83.3,799.2z"/>
		</g>
	</g>
</g>
</svg>
