<svg xmlns="http://www.w3.org/2000/svg" xmlns:xlink="http://www.w3.org/1999/xlink" viewBox="-2504 166 55 39">
  <defs>
    <style>
      .cls-1 {
        clip-path: url(#clip-Link_icon);
      }

      .cls-2 {
        fill: #fff;
      }
    </style>
    <clipPath id="clip-Link_icon">
      <rect x="-2504" y="166" width="55" height="39"/>
    </clipPath>
  </defs>
  <g id="Link_icon" class="cls-1">
    <path id="link" class="cls-2" d="M26.281,2.048A6.956,6.956,0,0,0,21.33,0h0a6.954,6.954,0,0,0-4.951,2.048L10.5,7.929A6.986,6.986,0,0,0,9.383,9.381a6.981,6.981,0,0,0-1.451,1.113L2.051,16.375a7,7,0,0,0,9.9,9.9L17.835,20.4a6.978,6.978,0,0,0,1.112-1.451A6.986,6.986,0,0,0,20.4,17.832l5.882-5.882a7.01,7.01,0,0,0,0-9.9ZM11.2,25.524a5.936,5.936,0,1,1-8.4-8.395l5.882-5.882a5.911,5.911,0,0,1,1.344-1.008,5.972,5.972,0,0,1,4.71-.432,5.928,5.928,0,0,1,3.673,3.477l-1.281,1.281a2.359,2.359,0,0,1-.819.535,3.449,3.449,0,0,0-5.868-2.093L4.564,18.888A3.447,3.447,0,0,0,7,24.773H7A3.426,3.426,0,0,0,9.44,23.765l4.138-4.138a7.028,7.028,0,0,0,3.445.074L11.2,25.524Zm8.025-13.052A7.012,7.012,0,0,0,15.856,9.1l3.789-3.789a2.364,2.364,0,0,1,1.684-.7h0a2.382,2.382,0,0,1,1.684,4.064l-3.789,3.789Zm-4.657,1.289a2.363,2.363,0,0,1,.688,1.493,2.375,2.375,0,0,1-2.181-2.181A2.366,2.366,0,0,1,14.569,13.761ZM9.107,15.854a7.014,7.014,0,0,0,3.368,3.369L8.686,23.011a2.366,2.366,0,0,1-1.684.7H7a2.38,2.38,0,0,1-1.684-4.065l3.789-3.789ZM25.527,11.2l-5.882,5.882a5.935,5.935,0,0,1-9.726-2.037l1.28-1.28a2.357,2.357,0,0,1,.819-.535,3.444,3.444,0,0,0,3.423,3.1,3.51,3.51,0,0,0,.4-.023,3.458,3.458,0,0,0,2.047-.987l5.882-5.882A3.447,3.447,0,0,0,21.33,3.553h0a3.424,3.424,0,0,0-2.438,1.008L15.7,7.752l-.946.946a7.057,7.057,0,0,0-3.445-.073L17.132,2.8a5.9,5.9,0,0,1,4.2-1.735h0a5.933,5.933,0,0,1,4.2,10.13Z" transform="translate(-2490.503 171.5)"/>
  </g>
</svg>
