<svg xmlns="http://www.w3.org/2000/svg" xmlns:xlink="http://www.w3.org/1999/xlink" viewBox="-2670 166 55 39">
  <defs>
    <style>
      .cls-1 {
        clip-path: url(#clip-Posts_icon);
      }

      .cls-2 {
        fill: #fff;
      }
    </style>
    <clipPath id="clip-Posts_icon">
      <rect x="-2670" y="166" width="55" height="39"/>
    </clipPath>
  </defs>
  <g id="Posts_icon" class="cls-1">
    <path id="folded-newspaper" class="cls-2" d="M32,62.367H28.817V60.058a.331.331,0,0,0-.331-.331H.331A.331.331,0,0,0,0,60.058V81.989a2.159,2.159,0,0,0,2.156,2.156H30.245a2.093,2.093,0,0,0,2.091-2.091V62.7A.331.331,0,0,0,32,62.367Zm-.331,19.688a1.428,1.428,0,0,1-2.857,0v-.918a.331.331,0,0,0-.663,0v.918a2.083,2.083,0,0,0,.566,1.428H2.156A1.5,1.5,0,0,1,.663,81.989V60.39H28.154V78.042a.331.331,0,1,0,.663,0V63.03h2.856V82.055ZM13.529,64.127H2.971a.331.331,0,0,0-.331.331v7.918a.331.331,0,0,0,.331.331H13.529a.331.331,0,0,0,.331-.331V64.458A.331.331,0,0,0,13.529,64.127ZM13.2,72.045H3.3V64.789H13.2Zm1.76-7.587a.331.331,0,0,1,.331-.331H25.846a.331.331,0,1,1,0,.663H15.288A.331.331,0,0,1,14.957,64.458Zm0,2.64a.331.331,0,0,1,.331-.331H25.846a.331.331,0,1,1,0,.663H15.288A.331.331,0,0,1,14.957,67.1Zm0,2.64a.331.331,0,0,1,.331-.331H25.846a.331.331,0,1,1,0,.663H15.288A.331.331,0,0,1,14.957,69.738Zm.331,2.971a.331.331,0,0,1,0-.663H25.846a.331.331,0,0,1,0,.663ZM13.86,75.018a.331.331,0,0,1-.331.331H2.971a.331.331,0,0,1,0-.663H13.529A.331.331,0,0,1,13.86,75.018Zm0,2.638a.331.331,0,0,1-.331.331H2.971a.331.331,0,1,1,0-.663H13.529A.331.331,0,0,1,13.86,77.656Zm0,2.638a.331.331,0,0,1-.331.331H2.971a.331.331,0,0,1,0-.663H13.529A.331.331,0,0,1,13.86,80.294ZM26.3,75.018a.331.331,0,0,1-.331.331H15.414a.331.331,0,0,1,0-.663H25.972A.331.331,0,0,1,26.3,75.018Zm0,2.638a.331.331,0,0,1-.331.331H15.414a.331.331,0,1,1,0-.663H25.972A.331.331,0,0,1,26.3,77.656Zm0,2.638a.331.331,0,0,1-.331.331H15.414a.331.331,0,0,1,0-.663H25.972A.331.331,0,0,1,26.3,80.294Z" transform="translate(-2659 113.273)"/>
  </g>
</svg>
