<svg xmlns="http://www.w3.org/2000/svg" xmlns:xlink="http://www.w3.org/1999/xlink" viewBox="-2582 166 55 39">
  <defs>
    <style>
      .cls-1 {
        clip-path: url(#clip-Settings_icon);
      }

      .cls-2 {
        fill: #fff;
      }
    </style>
    <clipPath id="clip-Settings_icon">
      <rect x="-2582" y="166" width="55" height="39"/>
    </clipPath>
  </defs>
  <g id="Settings_icon" class="cls-1">
    <g id="cogwheel" transform="translate(-2568 172)">
      <path id="path" class="cls-2" d="M26.712,11.4H25.518a11.675,11.675,0,0,0-1.533-3.7l.844-.844a1.289,1.289,0,0,0,0-1.821l-1.86-1.86a1.288,1.288,0,0,0-1.821,0l-.844.844a11.675,11.675,0,0,0-3.7-1.533V1.288A1.289,1.289,0,0,0,15.315,0h-2.63A1.289,1.289,0,0,0,11.4,1.288V2.482A11.675,11.675,0,0,0,7.7,4.014l-.844-.844a1.288,1.288,0,0,0-1.821,0L3.171,5.03a1.289,1.289,0,0,0,0,1.821l.844.844a11.676,11.676,0,0,0-1.533,3.7H1.288A1.289,1.289,0,0,0,0,12.685v2.63A1.289,1.289,0,0,0,1.288,16.6H2.482a11.675,11.675,0,0,0,1.533,3.7l-.844.844a1.288,1.288,0,0,0,0,1.821l1.86,1.86a1.288,1.288,0,0,0,1.821,0l.844-.844a11.676,11.676,0,0,0,3.7,1.533v1.194A1.289,1.289,0,0,0,12.685,28h2.63A1.289,1.289,0,0,0,16.6,26.712V25.518a11.676,11.676,0,0,0,3.7-1.533l.844.844a1.288,1.288,0,0,0,1.821,0l1.86-1.86a1.288,1.288,0,0,0,0-1.821l-.844-.844a11.676,11.676,0,0,0,1.533-3.7h1.194A1.289,1.289,0,0,0,28,15.315v-2.63A1.289,1.289,0,0,0,26.712,11.4Zm.466,3.918a.466.466,0,0,1-.466.466H25.185a.411.411,0,0,0-.4.332,10.872,10.872,0,0,1-1.663,4.017.411.411,0,0,0,.05.52l1.08,1.08a.466.466,0,0,1,0,.659l-1.86,1.86a.466.466,0,0,1-.659,0l-1.08-1.08a.411.411,0,0,0-.52-.05,10.873,10.873,0,0,1-4.017,1.663.411.411,0,0,0-.332.4v1.528a.466.466,0,0,1-.466.466h-2.63a.466.466,0,0,1-.466-.466V25.185a.411.411,0,0,0-.332-.4A10.873,10.873,0,0,1,7.87,23.118a.411.411,0,0,0-.52.05l-1.08,1.08a.466.466,0,0,1-.659,0l-1.86-1.86a.466.466,0,0,1,0-.659l1.08-1.08a.411.411,0,0,0,.05-.52,10.872,10.872,0,0,1-1.663-4.017.411.411,0,0,0-.4-.332H1.288a.466.466,0,0,1-.466-.466v-2.63a.466.466,0,0,1,.466-.466H2.816a.411.411,0,0,0,.4-.332A10.873,10.873,0,0,1,4.882,7.87a.411.411,0,0,0-.05-.52L3.752,6.27a.466.466,0,0,1,0-.659l1.86-1.86a.466.466,0,0,1,.659,0l1.08,1.08a.411.411,0,0,0,.52.05,10.873,10.873,0,0,1,4.017-1.663.411.411,0,0,0,.332-.4V1.288a.466.466,0,0,1,.466-.466h2.63a.466.466,0,0,1,.466.466V2.816a.411.411,0,0,0,.332.4A10.873,10.873,0,0,1,20.13,4.882a.411.411,0,0,0,.52-.05l1.08-1.08a.466.466,0,0,1,.659,0l1.86,1.86a.466.466,0,0,1,0,.659l-1.08,1.08a.411.411,0,0,0-.05.52,10.873,10.873,0,0,1,1.663,4.017.411.411,0,0,0,.4.332h1.528a.466.466,0,0,1,.466.466v2.63Z"/>
      <path id="path-2" data-name="path" class="cls-2" d="M104.822,112.3a7.484,7.484,0,0,1,10.389-6.892.411.411,0,1,0,.32-.757,8.3,8.3,0,0,0-9.685,12.87.411.411,0,0,0,.639-.517A7.5,7.5,0,0,1,104.822,112.3Z" transform="translate(-98.301 -98.301)"/>
      <path id="path-3" data-name="path" class="cls-2" d="M169.958,192.054a.411.411,0,0,0-.219.538,7.481,7.481,0,0,1-11.6,8.724.411.411,0,0,0-.517.639,8.3,8.3,0,0,0,12.87-9.683A.411.411,0,0,0,169.958,192.054Z" transform="translate(-148.845 -181.5)"/>
      <path id="path-4" data-name="path" class="cls-2" d="M338.661,136.724a7.546,7.546,0,0,1,1.117,1.118.411.411,0,0,0,.639-.517,8.363,8.363,0,0,0-1.24-1.24.411.411,0,1,0-.517.639Z" transform="translate(-319.96 -128.542)"/>
      <path id="path-5" data-name="path" class="cls-2" d="M142.548,136a6.548,6.548,0,1,0,6.548,6.548A6.555,6.555,0,0,0,142.548,136Zm0,12.274a5.726,5.726,0,1,1,5.726-5.726A5.732,5.732,0,0,1,142.548,148.274Z" transform="translate(-128.548 -128.548)"/>
    </g>
  </g>
</svg>
