<?xml version="1.0" encoding="utf-8"?>
<!-- Generator: Adobe Illustrator 18.1.1, SVG Export Plug-In . SVG Version: 6.00 Build 0)  -->
<!DOCTYPE svg PUBLIC "-//W3C//DTD SVG 1.1//EN" "http://www.w3.org/Graphics/SVG/1.1/DTD/svg11.dtd">
<svg version="1.1" id="Layer_1" xmlns="http://www.w3.org/2000/svg" xmlns:xlink="http://www.w3.org/1999/xlink" x="0px" y="0px"
	 viewBox="-315.7 -100.2 528.8 753.7" enable-background="new -315.7 -100.2 528.8 753.7" xml:space="preserve">
<g id="Document" transform="scale(1 -1)">
	<g id="Spread" transform="translate(0 -841.891)">
		<g id="Browser_frame">
			<path marker-end="none" marker-start="none" fill="#4C4C4C" d="M-311.4,903.6V867h522.1v36.5H-311.4z"/>
			
				<path marker-end="none" marker-start="none" fill="#FFFFFF" stroke="#FFFFFF" stroke-width="0.75" stroke-linecap="round" stroke-miterlimit="79.8403" d="
				M-239.9,893.4V881c0-0.8,0.6-1.4,1.4-1.4h411c0.8,0,1.4,0.6,1.4,1.4v12.5c0,0.8-0.6,1.4-1.4,1.4h-411
				C-239.2,894.9-239.9,894.2-239.9,893.4z"/>
			
				<path marker-end="none" marker-start="none" fill="none" stroke="#4C4C4C" stroke-width="4.5" stroke-linecap="round" stroke-miterlimit="79.8403" d="
				M-313.5,933.8V196.6c0-3.3,2.7-6,6-6h512.3c3.3,0,6,2.7,6,6v737.2c0,3.3-2.7,6-6,6h-512.3C-310.8,939.8-313.5,937.2-313.5,933.8z
				"/>
			
				<path fill="none" stroke="#4C4C4C" stroke-width="4.5" stroke-linecap="square" stroke-linejoin="round" stroke-miterlimit="79.8403" d="
				M-310.3,905.4h518.8"/>
			<text transform="matrix(1 0 0 -1 -302.599 918.444)" fill="#4C4C4C" font-family="'Calibri-Bold'" font-size="12">TITLE</text>
			<text transform="matrix(1 0 0 -1 154.7289 918.444)" fill="#4C4C4C" font-family="'Calibri-Bold'" font-size="12">NO</text>
			<text transform="matrix(1 0 0 -1 170.5731 918.444)" fill="#4C4C4C" font-family="'Calibri-Bold'" font-size="12">.</text>
			
				<path fill="none" stroke="#4C4C4C" stroke-width="1.5" stroke-linecap="square" stroke-linejoin="round" stroke-miterlimit="79.8403" d="
				M147.6,937.5v-31.1"/>
			
				<path marker-end="none" marker-start="none" fill="none" stroke="#FFFFFF" stroke-width="1.004" stroke-linecap="round" stroke-miterlimit="79.8403" d="
				M-261.5,880.6v7.6h-1.9l6.9,6.4l6.9-6.4h-1.9v-7.6h-3.2v4.3h-3.8v-4.3H-261.5z"/>
			
				<path marker-end="none" marker-start="none" fill="none" stroke="#FFFFFF" stroke-width="1.125" stroke-linecap="round" stroke-miterlimit="79.8403" d="
				M-296.2,881.8l-6.3,5.5l6.3,5.5l0-2.3h6.2v-6.4h-6.2V881.8z"/>
			
				<path marker-end="none" marker-start="none" fill="none" stroke="#FFFFFF" stroke-width="1.125" stroke-linecap="round" stroke-miterlimit="79.8403" d="
				M-276.1,892.8l6.3-5.5l-6.3-5.5l0,2.3h-6.2v6.4h6.2V892.8z"/>
		</g>
	</g>
</g>
</svg>
