<svg xmlns="http://www.w3.org/2000/svg" xmlns:xlink="http://www.w3.org/1999/xlink" viewBox="8134 -3075 72 43">
  <defs>
    <style>
      .cls-1 {
        clip-path: url(#clip-TV_Landscape_Logo);
      }

      .cls-2 {
        stroke: #000;
        stroke-width: 1px;
      }

      .cls-3 {
        fill: #b1b1b1;
        font-size: 15px;
        font-family: Avenir-Black, Avenir;
        font-weight: 800;
      }

      .cls-4 {
        fill: #fff;
      }
    </style>
    <clipPath id="clip-TV_Landscape_Logo">
      <rect x="8134" y="-3075" width="72" height="43"/>
    </clipPath>
  </defs>
  <g id="TV_Landscape_Logo" class="cls-1">
    <rect class="cls-4" x="8134" y="-3075" width="72" height="43"/>
    <g id="group-23" transform="translate(8134.37 -3074.947)">
      <g id="computer" transform="translate(0 0)">
        <g id="group">
          <g id="group-22">
            <path id="path" class="cls-2" d="M69.114,15.087H2.107A2.109,2.109,0,0,0,0,17.194v37.13a0,0,0,0,1,0,0v1.855a1.241,1.241,0,0,0,1.24,1.242H70a1.216,1.216,0,0,0,1.212-1.242v-1.8c0-.02.005-.039.005-.058V17.194A2.106,2.106,0,0,0,69.114,15.087ZM34.262,55.99a1.049,1.049,0,1,1,1.049,1.049A1.049,1.049,0,0,1,34.262,55.99Zm34.852-1.436H2.107V17.36a.3.3,0,0,1,.3-.3h66.41a.3.3,0,0,1,.3.3Z" transform="translate(0 -15.087)"/>
          </g>
        </g>
      </g>
      <text id="TV" class="cls-3" transform="translate(25.294 27.807)"><tspan x="0" y="0">TV</tspan></text>
    </g>
  </g>
</svg>
