<svg xmlns="http://www.w3.org/2000/svg" xmlns:xlink="http://www.w3.org/1999/xlink" viewBox="8142 -3014 66 52">
  <defs>
    <style>
      .cls-1 {
        clip-path: url(#clip-Tablets_Logo);
      }

      .cls-2, .cls-3, .cls-5 {
        fill: none;
      }

      .cls-2, .cls-3 {
        stroke: #000;
      }

      .cls-2 {
        stroke-width: 0.5px;
      }

      .cls-3 {
        stroke-width: 0.8px;
      }

      .cls-4 {
        stroke: none;
      }

      .cls-6 {
        fill: #fff;
      }
    </style>
    <clipPath id="clip-Tablets_Logo">
      <rect x="8142" y="-3014" width="66" height="52"/>
    </clipPath>
  </defs>
  <g id="Tablets_Logo" class="cls-1">
    <rect class="cls-6" x="8142" y="-3014" width="66" height="52"/>
    <g id="group-66" transform="translate(1013.833 -585.818)">
      <path id="path-6" class="cls-2" d="M7139.75-2418.566a5.906,5.906,0,0,1,.622-.836,3.353,3.353,0,0,1,.838-.578c10.386-1.951,27.461-2.109,27.461-2.109s20.235.35,27.891,2.033c.892.247.8.252,1.2.625s.272.337.654.9c1.053,5.573,1.327,11,1.74,21.248a142.324,142.324,0,0,1-1.7,19.991,3.937,3.937,0,0,1-.77,1.156,2.578,2.578,0,0,1-1.078.563,222.256,222.256,0,0,1-27.936,2,213.9,213.9,0,0,1-27.607-2.1l-.879-.592a2.943,2.943,0,0,1-.435-.708,193.173,193.173,0,0,1-1.768-20.244A171.727,171.727,0,0,1,7139.75-2418.566Z" transform="translate(-7.672 -4.424)"/>
      <path id="path-6-2" data-name="path-6" class="cls-3" d="M7139.824-2418.416a6.1,6.1,0,0,1,.648-.872,3.5,3.5,0,0,1,.873-.6c10.827-2.034,28.625-2.2,28.625-2.2s21.094.365,29.075,2.119c.929.258.829.263,1.245.652s.284.351.683.934c1.1,5.81,1.383,11.462,1.814,22.15a148.374,148.374,0,0,1-1.769,20.839,4.115,4.115,0,0,1-.8,1.2,2.694,2.694,0,0,1-1.124.587,231.648,231.648,0,0,1-29.121,2.081,222.937,222.937,0,0,1-28.777-2.191l-.916-.617a3.031,3.031,0,0,1-.454-.737,201.234,201.234,0,0,1-1.843-21.1A179.231,179.231,0,0,1,7139.824-2418.416Z" transform="translate(-8.989 -5.453)"/>
      <g id="rectangle-40" class="cls-3" transform="translate(7135.954 -2421.414)">
        <rect class="cls-4" width="50.773" height="37.968" rx="5"/>
        <rect class="cls-5" x="0.4" y="0.4" width="49.973" height="37.168" rx="4.6"/>
      </g>
    </g>
  </g>
</svg>
