<?xml version="1.0" encoding="UTF-8"?>
<svg width="26px" height="86px" viewBox="0 0 26 86" version="1.1" xmlns="http://www.w3.org/2000/svg" xmlns:xlink="http://www.w3.org/1999/xlink">
    <!-- Generator: Sketch 41.2 (35397) - http://www.bohemiancoding.com/sketch -->
    <title>noun_425093_cc</title>
    <desc>Created with Sketch.</desc>
    <defs></defs>
    <g id="Page-1" stroke="none" stroke-width="1" fill="none" fill-rule="evenodd">
        <g id="Select-Size" transform="translate(-91.000000, -193.000000)" fill="#FFFFFF">
            <g id="Group-8" transform="translate(82.000000, 193.000000)">
                <g id="noun_425093_cc" transform="translate(9.000000, 0.000000)">
                    <g id="Group">
                        <path d="M23.195,30.277 C22.386,29.307 21.688,28.47 21.461,27.37 L17.815,9.773 C18.722,8.826 18.367,7.674 18.237,7.255 L18.208,7.157 C18.048,6.61 17.941,6.178 17.868,5.837 C18.306,5.73 18.636,5.354 18.636,4.884 C18.636,3.881 18.043,0.969 16.229,0.969 L9.772,0.969 C7.958,0.969 7.365,3.881 7.365,4.884 C7.365,5.354 7.696,5.73 8.133,5.837 C8.06,6.178 7.954,6.61 7.794,7.157 L7.764,7.255 C7.635,7.674 7.279,8.825 8.186,9.773 L4.54,27.37 C4.312,28.47 3.613,29.307 2.805,30.277 C1.627,31.689 0.292,33.29 0.292,35.996 L0.292,81.129 C0.292,83.28 2.043,85.031 4.196,85.031 L21.807,85.031 C23.958,85.031 25.709,83.28 25.709,81.129 L25.709,35.996 C25.709,33.29 24.374,31.689 23.195,30.277 Z M9.627,8.381 C9.556,8.291 9.572,8.174 9.673,7.845 L9.711,7.72 C9.942,6.93 10.081,6.328 10.164,5.884 L15.835,5.884 C15.917,6.328 16.056,6.93 16.287,7.72 L16.325,7.845 C16.427,8.174 16.442,8.29 16.372,8.381 L9.627,8.381 Z M9.926,2.969 L16.074,2.969 C16.201,3.128 16.353,3.489 16.467,3.884 L9.533,3.884 C9.647,3.489 9.799,3.128 9.926,2.969 Z M10.101,10.381 L15.898,10.381 L18.143,21.219 C17.686,21.465 17.263,21.823 16.829,22.196 C15.867,23.022 14.777,23.957 13,23.957 C11.222,23.957 10.132,23.021 9.171,22.196 C8.736,21.822 8.313,21.465 7.856,21.218 L10.101,10.381 Z M4.34,31.558 C5.239,30.48 6.169,29.366 6.498,27.776 L7.417,23.338 C7.569,23.461 7.724,23.59 7.868,23.714 C8.971,24.661 10.481,25.958 13,25.958 C15.519,25.958 17.028,24.661 18.132,23.714 C18.277,23.59 18.431,23.461 18.583,23.338 L19.502,27.776 C19.832,29.366 20.761,30.481 21.66,31.558 C22.714,32.822 23.709,34.015 23.709,35.996 L23.709,50.225 L22.64,50.225 C21.323,44.23 17.446,40.111 13,40.111 C8.555,40.111 4.678,44.232 3.361,50.225 L2.291,50.225 L2.291,35.996 C2.291,34.014 3.286,32.821 4.34,31.558 Z M23.709,56.994 L2.291,56.994 L2.291,52.224 L23.709,52.224 L23.709,56.994 L23.709,56.994 Z M20.59,58.994 C19.405,63.826 16.392,67.109 13,67.109 C9.609,67.109 6.596,63.827 5.41,58.994 L20.59,58.994 Z M5.41,50.225 C6.597,45.393 9.61,42.111 13,42.111 C16.392,42.111 19.405,45.394 20.59,50.225 L5.41,50.225 L5.41,50.225 Z M21.807,83.031 L4.193,83.031 C3.144,83.031 2.291,82.177 2.291,81.129 L2.291,58.994 L3.361,58.994 C4.678,64.988 8.555,69.109 13,69.109 C17.446,69.109 21.323,64.989 22.64,58.994 L23.709,58.994 L23.709,81.129 C23.709,82.178 22.855,83.031 21.807,83.031 Z" id="Shape"></path>
                    </g>
                </g>
            </g>
        </g>
    </g>
</svg>