<?xml version="1.0" encoding="UTF-8"?>
<svg width="13px" height="13px" viewBox="0 0 13 13" version="1.1" xmlns="http://www.w3.org/2000/svg" xmlns:xlink="http://www.w3.org/1999/xlink">
    <!-- Generator: Sketch 43.2 (39069) - http://www.bohemiancoding.com/sketch -->
    <title>Checkbox Active</title>
    <desc>Created with Sketch.</desc>
    <defs></defs>
    <g id="PRODUCT-EDITING" stroke="none" stroke-width="1" fill="none" fill-rule="evenodd">
        <g id="Editor/Curator-View-Product" transform="translate(-504.000000, -547.000000)">
            <g id="Checkbox-Active" transform="translate(503.500000, 547.000000)">
                <g id="Active">
                    <g id="Tick">
                        <path d="M9.40897887,0.627892613 C9.40897887,0.627892613 1.63681702,8.40117242 0.846057778,9.48571429 C0.0552985343,10.5702561 0.846057778,12.3721074 0.846057778,12.3721074 C1.66638183,13.2092975 2.99783087,13.2092975 3.82025832,12.3721074 L12.3831794,3.65548052 C13.2056069,2.82043152 13.2056069,1.46508276 12.3831794,0.627892613 C11.560752,-0.209297538 10.2293029,-0.209297538 9.40897887,0.627892613 Z" fill="#CF0000"></path>
                        <path d="M9.40897887,0.627892613 C9.40897887,0.627892613 1.63681702,8.40117242 0.846057778,9.48571429 C0.0552985343,10.5702561 0.846057778,12.3721074 0.846057778,12.3721074 C1.66638183,13.2092975 2.99783087,13.2092975 3.82025832,12.3721074 L12.3831794,3.65548052 C13.2056069,2.82043152 13.2056069,1.46508276 12.3831794,0.627892613 C11.560752,-0.209297538 10.2293029,-0.209297538 9.40897887,0.627892613 Z" fill="#D40000" transform="translate(6.747305, 6.500000) scale(-1, 1) translate(-6.747305, -6.500000) "></path>
                    </g>
                </g>
            </g>
        </g>
    </g>
</svg>