<?xml version="1.0" encoding="UTF-8"?>
<svg width="25px" height="25px" viewBox="0 0 25 25" version="1.1" xmlns="http://www.w3.org/2000/svg" xmlns:xlink="http://www.w3.org/1999/xlink">
    <!-- Generator: Sketch 43.2 (39069) - http://www.bohemiancoding.com/sketch -->
    <title>Digital Ads Icon</title>
    <desc>Created with Sketch.</desc>
    <defs></defs>
    <g id="Page-1" stroke="none" stroke-width="1" fill="none" fill-rule="evenodd">
        <g id="Marketing-Channels" transform="translate(-153.000000, -831.000000)">
            <g id="Digital-Ads-Icon" transform="translate(153.000000, 831.000000)">
                <g id="Icon" transform="translate(-0.000000, 0.000000)">
                    <rect id="Base" fill="#7F8FA4" x="0" y="0" width="25" height="25" rx="12.5"></rect>
                    <rect id="Base" stroke="#FFFFFF" stroke-width="0.833333333" opacity="0.202955163" x="2.08333333" y="2.08333333" width="20.8333333" height="20.8333333" rx="10.4166667"></rect>
                </g>
                <g id="Group" transform="translate(5.833333, 7.500000)" fill-rule="nonzero" fill="#FFFFFF">
                    <path d="M13.0701449,0.110186404 L0.263333333,0.110186404 C0.195362319,0.110186404 0.140434783,0.164210526 0.140434783,0.230921053 L0.140434783,8.43645833 C0.140434783,8.4685307 0.153333333,8.49917763 0.176376812,8.52198465 C0.19942029,8.54450658 0.230724638,8.55733553 0.263333333,8.55733553 L6.1015942,8.55733553 L6.1015942,9.62042763 L3.84347826,9.62042763 C3.79956522,9.62042763 3.75898551,9.64337719 3.73710145,9.68086623 L3.22666667,10.5508114 C3.20478261,10.5881579 3.20478261,10.6341996 3.22666667,10.6715461 C3.24855072,10.7090351 3.28913043,10.7319846 3.33289855,10.7319846 L10.0007246,10.7319846 L10.0010145,10.7319846 C10.0689855,10.7319846 10.123913,10.677818 10.123913,10.61125 C10.123913,10.5861623 10.116087,10.5629276 10.1028986,10.5435417 L9.59652174,9.68086623 C9.57463768,9.64337719 9.53391304,9.62042763 9.49014493,9.62042763 L7.2315942,9.62042763 L7.2315942,8.55733553 L12.1856522,8.55733553 L13.0701449,8.55733553 C13.137971,8.55733553 13.1928986,8.5033114 13.1928986,8.43645833 L13.1928986,0.230921053 C13.1927536,0.164210526 13.1378261,0.110186404 13.0701449,0.110186404 Z M12.0627536,7.44592105 L1.27057971,7.44592105 L1.27057971,1.22160088 L12.0628986,1.22160088 L12.0628986,7.44592105 L12.0627536,7.44592105 Z" id="Shape"></path>
                    <path d="M6.66666667,6.37270833 C7.81,6.37270833 8.74014493,5.45800439 8.74014493,4.33347588 C8.74014493,3.20894737 7.81,2.29424342 6.66666667,2.29424342 C5.52333333,2.29424342 4.59333333,3.20908991 4.59333333,4.33361842 C4.59333333,5.45814693 5.52333333,6.37270833 6.66666667,6.37270833 Z M5.94376812,3.28691886 C5.94376812,3.25883772 5.95898551,3.23289474 5.98362319,3.21892544 C6.0084058,3.2048136 6.03884058,3.2048136 6.06362319,3.21892544 L7.90681159,4.265625 C7.93144928,4.2795943 7.94666667,4.30553728 7.94666667,4.33361842 C7.94666667,4.36169956 7.93144928,4.3875 7.90681159,4.40161184 L6.06362319,5.4483114 C6.05115942,5.45529605 6.0373913,5.45871711 6.02362319,5.45871711 C6.00985507,5.45871711 5.99623188,5.45529605 5.98376812,5.4483114 C5.95913043,5.43405702 5.94391304,5.40825658 5.94391304,5.38017544 L5.94391304,3.28691886 L5.94376812,3.28691886 Z" id="Shape"></path>
                </g>
            </g>
        </g>
    </g>
</svg>