<?xml version="1.0" encoding="UTF-8"?>
<svg width="29px" height="29px" viewBox="0 0 29 29" version="1.1" xmlns="http://www.w3.org/2000/svg" xmlns:xlink="http://www.w3.org/1999/xlink">
    <!-- Generator: Sketch 43.2 (39069) - http://www.bohemiancoding.com/sketch -->
    <title>Facebook Icon</title>
    <desc>Created with Sketch.</desc>
    <defs></defs>
    <g id="Page-1" stroke="none" stroke-width="1" fill="none" fill-rule="evenodd">
        <g id="Marketing-Channels---Scheduled-Posts" transform="translate(-585.000000, -160.000000)">
            <g id="Facebook-Icon" transform="translate(585.000000, 160.000000)">
                <rect id="Base" fill="#3B5998" x="0" y="0" width="29" height="29" rx="14.5"></rect>
                <rect id="Base" stroke="#4D71BD" stroke-width="0.96" x="2.48" y="2.48" width="24.1733333" height="24.1733333" rx="12.0866667"></rect>
                <path d="M18.1272881,6 L15.3629237,6 C13.7224576,6 11.8977966,6.68995763 11.8977966,9.06788136 C11.9058051,9.89644068 11.8977966,10.6899576 11.8977966,11.5830085 L10,11.5830085 L10,14.6029661 L11.9565254,14.6029661 L11.9565254,23.2969068 L15.5517373,23.2969068 L15.5517373,14.5455932 L17.9247034,14.5455932 L18.1394068,11.5745339 L15.4897881,11.5745339 C15.4897881,11.5745339 15.4957203,10.2528814 15.4897881,9.8690678 C15.4897881,8.92936441 16.4675847,8.98317797 16.5263983,8.98317797 C16.9916949,8.98317797 17.8963983,8.9845339 18.1286441,8.98317797 L18.1286441,6 L18.1272881,6 L18.1272881,6 Z" id="Shape" fill="#FFFFFF" fill-rule="nonzero"></path>
            </g>
        </g>
    </g>
</svg>