<?xml version="1.0" encoding="UTF-8"?>
<svg width="19px" height="19px" viewBox="0 0 19 19" version="1.1" xmlns="http://www.w3.org/2000/svg" xmlns:xlink="http://www.w3.org/1999/xlink">
    <!-- Generator: Sketch 43.2 (39069) - http://www.bohemiancoding.com/sketch -->
    <title>Google Analytics Icon</title>
    <desc>Created with Sketch.</desc>
    <defs>
        <linearGradient x1="0%" y1="50%" x2="100%" y2="50%" id="linearGradient-1">
            <stop stop-color="#FFFFFF" stop-opacity="0.1" offset="0%"></stop>
            <stop stop-color="#FFFFFF" stop-opacity="0" offset="100%"></stop>
        </linearGradient>
        <linearGradient x1="-49.6146435%" y1="25.2403846%" x2="93.1791908%" y2="96.5%" id="linearGradient-2">
            <stop stop-color="#BF360C" stop-opacity="0.2" offset="0%"></stop>
            <stop stop-color="#BF360C" stop-opacity="0.02" offset="100%"></stop>
        </linearGradient>
        <linearGradient x1="33.5322368%" y1="33.5730263%" x2="98.2203947%" y2="98.2611842%" id="linearGradient-3">
            <stop stop-color="#FFFFFF" stop-opacity="0.1" offset="0%"></stop>
            <stop stop-color="#FFFFFF" stop-opacity="0" offset="100%"></stop>
        </linearGradient>
    </defs>
    <g id="Page-1" stroke="none" stroke-width="1" fill="none" fill-rule="evenodd">
        <g id="Marketing-Channels" transform="translate(-155.000000, -338.000000)" fill-rule="nonzero">
            <g id="Google-Analytics-Icon" transform="translate(155.000000, 338.000000)">
                <path d="M17.3607843,0 L13.920915,0 C13.0888889,0 12.4058824,0.6875 12.4058824,1.525 L12.4058824,6 L7.42614379,6 C6.61895425,6 5.96078431,6.6625 5.96078431,7.4875 L5.96078431,12.5 L1.47777778,12.5 C0.658169935,12.5 0,13.1625 0,13.9875 L0,17.4875 C0,18.3125 0.658169935,18.975 1.47777778,19 L17.3732026,19 C18.2052288,19 18.8882353,18.3125 18.8882353,17.475 L18.8882353,1.525 C18.875817,0.6875 18.1928105,0 17.3607843,0 Z" id="Shape" fill="url(#linearGradient-1)"></path>
                <path d="M17.3607843,0 L13.920915,0 C13.0888889,0 12.4058824,0.6875 12.4058824,1.525 L12.4058824,6 L7.42614379,6 C6.61895425,6 5.96078431,6.6625 5.96078431,7.4875 L5.96078431,12.5 L1.47777778,12.5 C0.658169935,12.5 0,13.1625 0,13.9875 L0,17.4875 C0,18.3125 0.658169935,18.975 1.47777778,19 L17.3732026,19 C18.2052288,19 18.8882353,18.3125 18.8882353,17.475 L18.8882353,1.525 C18.875817,0.6875 18.1928105,0 17.3607843,0 Z" id="Shape" fill="url(#linearGradient-1)"></path>
                <g id="Group">
                    <path d="M17.3607843,0 L13.9457516,0 C13.1137255,0 12.430719,0.6875 12.430719,1.525 L12.430719,19 L17.3607843,19 C18.1928105,19 18.875817,18.3125 18.875817,17.475 L18.875817,1.525 C18.875817,0.6875 18.1928105,0 17.3607843,0 Z" id="Shape" fill="#F57C00"></path>
                    <path d="M5.96078431,7.5 L5.96078431,12.5 L1.49019608,12.5 C0.670588235,12.5 0,13.175 0,14 L0,17.5 C0,18.325 0.670588235,19 1.49019608,19 L12.4183007,19 L12.4183007,6 L7.45098039,6 C6.63137255,6 5.96078431,6.675 5.96078431,7.5 Z" id="Shape" fill="#FFC107"></path>
                </g>
                <path d="M12.4183007,6 L12.4183007,19 L17.348366,19 C18.1803922,19 18.8633987,18.3125 18.8633987,17.475 L18.8633987,12.5 L12.4183007,6 Z" id="Shape" fill="url(#linearGradient-2)"></path>
                <path d="M7.45098039,6.125 L12.4183007,6.125 L12.4183007,6 L7.45098039,6 C6.63137255,6 5.96078431,6.675 5.96078431,7.5 L5.96078431,7.625 C5.96078431,6.8 6.63137255,6.125 7.45098039,6.125 Z" id="Shape" fill="#FFFFFF" opacity="0.2"></path>
                <path d="M1.49019608,12.625 L5.96078431,12.625 L5.96078431,12.5 L1.49019608,12.5 C0.670588235,12.5 0,13.175 0,14 L0,14.125 C0,13.3 0.670588235,12.625 1.49019608,12.625 Z" id="Shape" fill="#FFFFFF" opacity="0.2"></path>
                <path d="M17.3607843,0 L13.9457516,0 C13.1137255,0 12.430719,0.6875 12.430719,1.525 L12.430719,1.65 C12.430719,0.8125 13.1137255,0.125 13.9457516,0.125 L17.3607843,0.125 C18.1928105,0.125 18.875817,0.8125 18.875817,1.65 L18.875817,1.525 C18.875817,0.6875 18.1928105,0 17.3607843,0 Z" id="Shape" fill="#FFFFFF" opacity="0.2"></path>
                <path d="M17.3607843,18.875 L1.49019608,18.875 C0.670588235,18.875 0,18.2 0,17.375 L0,17.5 C0,18.325 0.670588235,19 1.49019608,19 L17.348366,19 C18.1803922,19 18.8633987,18.3125 18.8633987,17.475 L18.8633987,17.35 C18.875817,18.1875 18.1928105,18.875 17.3607843,18.875 L17.3607843,18.875 Z" id="Shape" fill="#BF360C" opacity="0.2"></path>
                <path d="M17.3607843,0 L13.9457516,0 C13.1137255,0 12.430719,0.6875 12.430719,1.525 L12.430719,6 L7.46339869,6 C6.64379085,6 5.97320261,6.675 5.97320261,7.5 L5.97320261,12.5 L1.49019608,12.5 C0.670588235,12.5 0,13.175 0,14 L0,17.5 C0,18.325 0.670588235,19 1.49019608,19 L17.3607843,19 C18.1928105,19 18.875817,18.3125 18.875817,17.475 L18.875817,1.525 C18.875817,0.6875 18.1928105,0 17.3607843,0 Z" id="Shape" fill="url(#linearGradient-3)"></path>
            </g>
        </g>
    </g>
</svg>