<?xml version="1.0" encoding="UTF-8"?>
<svg width="44px" height="44px" viewBox="0 0 44 44" version="1.1" xmlns="http://www.w3.org/2000/svg" xmlns:xlink="http://www.w3.org/1999/xlink">
    <!-- Generator: Sketch 43.2 (39069) - http://www.bohemiancoding.com/sketch -->
    <title>Group 67</title>
    <desc>Created with Sketch.</desc>
    <defs></defs>
    <g id="PRODUCT-EDITING" stroke="none" stroke-width="1" fill="none" fill-rule="evenodd">
        <g id="Group-67">
            <rect id="Active-Highlight" fill="#2BBF88" x="0" y="0" width="44" height="44" rx="4"></rect>
            <g id="Group-66" transform="translate(8.000000, 4.000000)" fill="#FFFFFF">
                <path d="M16.7479418,4.77019426 C16.8938146,5.11360455 16.9716135,5.47663828 16.9716135,5.85929545 C16.9716135,6.24195263 16.8938146,6.61479809 16.7576666,6.93858493 C21.7465178,8.16505024 25.4711377,12.7078778 25.4711377,18.1141368 C25.4711377,23.5105842 21.7465178,28.0632234 16.7576666,29.279877 C16.8938146,29.6232873 16.9716135,29.9765093 16.9716135,30.3591665 C16.9716135,30.7516354 16.8938146,31.1244809 16.7479418,31.4580794 C22.9232254,30.1923672 27.5717066,24.6879909 27.5717066,18.1043251 C27.5814315,11.5304711 22.9232254,6.02609474 16.7479418,4.77019426 Z M11.3992709,29.2995005 C6.41041973,28.0828469 2.68579983,23.5203959 2.68579983,18.1239486 C2.68579983,12.7176895 6.41041973,8.16505024 11.3992709,6.94839665 C11.2631229,6.61479809 11.1853241,6.25176435 11.1853241,5.86910718 C11.1853241,5.48645 11.2631229,5.11360455 11.4089958,4.78000598 C5.23371214,6.04571818 0.585230914,11.5500945 0.585230914,18.1337603 C0.585230914,24.7174261 5.24343699,30.2218024 11.4089958,31.4875146 C11.2631229,31.1441043 11.1853241,30.7810706 11.1853241,30.3886017 C11.1853241,29.9863211 11.2631229,29.6232873 11.3992709,29.2995005 Z" id="Shape"></path>
                <ellipse id="Oval" cx="14.0736063" cy="5.86910718" rx="1.83799781" ry="1.85441555"></ellipse>
                <ellipse id="Oval" cx="14.0736063" cy="1.61081962" rx="1.14753302" ry="1.15778325"></ellipse>
                <path d="M21.0852276,20.7927371 C21.0852276,21.9799555 20.5795351,23.1966091 19.6070495,24.1679696 C18.7707118,25.0117778 17.5648297,25.6691632 16.0185776,25.9733266 C15.4545359,26.0812555 14.8515948,26.1499376 14.1903046,26.1499376 C10.990827,26.1499376 8.31649153,24.8351667 7.80107415,24.4230744 C7.36345563,24.0698524 7.59685217,23.9030531 7.68437588,23.7460656 C8.1900684,22.8924457 9.15282915,21.3421935 9.34732627,21.0674653 C9.66824653,20.6161261 9.79466965,20.6259378 10.3684362,21.008595 C10.990827,21.4206873 12.9260733,22.2154368 14.2097543,22.2154368 C15.2697636,22.2154368 15.7657313,21.6954156 15.7657313,21.1655825 C15.7657313,20.4297033 14.0833312,20.1844103 11.8952386,19.7330711 C9.48347426,19.2326732 7.07170994,18.2220658 7.07170994,15.1411849 C7.07170994,12.7765598 9.02640602,10.8828974 11.8952386,10.294194 C12.4787299,10.1764533 13.1011207,10.0881478 13.7526861,10.0881478 C15.1044411,10.0881478 15.921329,10.2549471 16.6506932,10.470805 C17.54538,10.7259098 18.3136436,11.0595084 18.8874101,11.3636718 C18.9263095,11.3832952 19.1402564,11.5108476 19.1791558,11.5402828 C19.3153038,11.6482117 19.4320021,11.7953876 19.4125524,11.991622 C19.3931026,12.168233 19.2083304,12.5018316 18.6637384,13.6105562 C18.5081407,13.9343431 18.0802471,14.7879629 17.9538239,14.8860801 C17.9149245,14.9155153 17.8371257,15.0038208 17.6231788,15.0038208 C17.3314331,14.9940091 17.0105129,14.8173981 16.9910632,14.8075864 C16.5631695,14.5917285 16.0088527,14.2973768 15.6295833,14.150201 C14.9877428,13.9049079 14.433426,13.7479203 13.8402098,13.7479203 C12.8288248,13.7479203 12.2842328,14.150201 12.2842328,14.6996574 C12.2842328,15.278549 13.3734167,15.4944069 15.3281128,15.8672524 C15.9018793,15.9751813 16.8646401,16.2302861 17.2828089,16.3676502 C19.2764044,17.0054122 21.0852276,18.1730072 21.0852276,20.7927371 Z" id="Shape"></path>
                <ellipse id="Oval" cx="14.0736063" cy="30.3689782" rx="1.83799781" ry="1.85441555"></ellipse>
                <ellipse id="Oval" cx="14.0736063" cy="34.6272658" rx="1.14753302" ry="1.15778325"></ellipse>
            </g>
        </g>
    </g>
</svg>