<?xml version="1.0" encoding="UTF-8"?>
<svg width="25px" height="26px" viewBox="0 0 25 26" version="1.1" xmlns="http://www.w3.org/2000/svg" xmlns:xlink="http://www.w3.org/1999/xlink">
    <!-- Generator: Sketch 43.2 (39069) - http://www.bohemiancoding.com/sketch -->
    <title>MailChimp Icon</title>
    <desc>Created with Sketch.</desc>
    <defs></defs>
    <g id="Page-1" stroke="none" stroke-width="1" fill="none" fill-rule="evenodd">
        <g id="Marketing-Channels" transform="translate(-752.000000, -245.000000)">
            <g id="MailChimp-Icon" transform="translate(752.000000, 245.000000)">
                <path d="M24.6060399,18.5681162 C24.5856618,18.6342365 22.6602941,25.9760842 15.0953256,25.9738958 C8.55593487,25.9719158 5.45635504,20.3329379 5.45635504,20.3329379 C4.97977941,20.3593026 4.51990546,20.2842204 4.0957458,20.1296273 C2.17715336,19.4303888 1.25661765,17.2528497 1.91859244,15.4259719 L0.864128151,14.6265371 C-3.22053571,11.5396232 8.35057773,-2.58619238 12.4423319,0.610192385 C12.4630252,0.626344689 13.4190651,1.38977555 13.4190651,1.38977555 C14.8882353,0.504681363 16.3432248,0.0262084168 17.5259454,0.0261563126 C18.3658613,0.0260521042 19.0683298,0.267294589 19.5413866,0.775466934 C20.6034139,1.91623647 20.2217437,4.09466132 18.7715336,6.30018036 C19.0834559,6.59394389 19.3419643,6.99321844 19.5264706,7.38957515 C19.9875,7.74247695 20.2863445,8.27899399 20.4348214,9.01996794 C20.6001576,9.84389178 20.6344013,11.017487 20.7381828,11.5218036 C21.1292542,11.6969259 20.9626576,11.6158517 21.3796218,11.822497 C21.8143908,12.0380521 22.3438025,12.3005531 22.9288866,12.8590581 C23.968855,13.1175471 24.3659664,14.2144449 23.757458,14.9630782 C23.7411239,14.9831383 23.6676471,15.0695271 23.5915441,15.1554469 C23.6097164,15.2029659 23.8091912,15.5235631 23.9531513,16.1762725 C24.3840861,16.2772505 24.7273634,16.540481 24.9075105,16.9221964 C25.2190651,17.6692665 24.6060399,18.5681162 24.6060399,18.5681162 Z M21.6071429,24.1127856 L21.6071429,24.4200962 L21.7257878,24.4200962 L21.7257878,24.1127856 L21.8471113,24.1127856 L21.8471113,24.0158196 L21.487395,24.0158196 L21.487395,24.1127856 L21.6071429,24.1127856 Z M21.8834034,24.0158196 L21.8834034,24.4200962 L21.9915966,24.4200962 L21.9915966,24.1282084 L22.0799895,24.4200962 L22.1722689,24.4200962 L22.2606618,24.1274269 L22.2606618,24.4200962 L22.368855,24.4200962 L22.368855,24.0158196 L22.1996849,24.0158196 L22.1266282,24.2484649 L22.0524685,24.0158196 L21.8834034,24.0158196 L21.8834034,24.0158196 Z" id="Fill-1" fill="#5B453E"></path>
                <path d="M6.99957983,15.8054469 L6.99957983,15.8054469 C7.16433824,15.39002 7.24737395,15.0490501 7.24737395,15.0490501 C7.43597689,15.6210501 7.53245798,16.2226453 7.49459034,16.8307535 C7.65094538,16.6243687 7.81880252,16.2356713 7.81880252,16.2356713 C8.10966387,17.9343727 6.86008403,19.4893186 5.21386555,19.4893186 C3.7522584,19.4893186 2.56743697,18.2518958 2.56743697,16.7254509 C2.56743697,15.1989539 3.7522584,13.9615311 5.21386555,13.9615311 C5.59269958,13.9615311 5.9529937,14.0446894 6.27888655,14.194489 C6.27888655,14.1944369 6.84138655,14.4757996 6.99957983,15.8054469 Z M21.4003676,21.7955551 C23.4519433,20.1964248 23.8103466,18.2704449 23.8445378,18.2040641 C24.3493697,17.6034068 24.2121324,17.0116593 23.5452206,17.0116072 C23.3330357,17.0116072 23.1727416,17.0671503 23.1727416,17.0671503 C23.1727416,17.0671503 23.1752101,16.1906533 22.7665441,15.5080361 C22.4514706,15.8595311 21.5769958,16.5558517 20.4295693,17.0962766 C19.3535189,17.6030942 17.9177521,18.0469178 16.1384454,18.1056914 L16.1383929,18.1056914 C15.6401786,18.1271583 15.3319853,18.0467094 15.1584559,18.6229299 C15.1030462,18.826501 15.1269958,19.1289138 15.1686975,19.2163447 C15.3090336,19.6936192 15.6757353,19.9039639 16.1584034,20.0153627 C16.5244223,20.0999279 16.9131303,20.1078998 16.9131303,20.1078998 C20.5216912,20.2082525 23.4193803,17.4161964 23.4539916,17.39301 C23.4875,17.3657595 23.5152311,17.333507 23.5152311,17.333507 C23.5152311,17.333507 23.4834034,17.4075471 23.4796218,17.4159359 C22.9584034,18.5787455 19.9406513,20.6874028 16.9368697,20.627014 L16.9269958,20.630505 C16.2303571,20.6278477 15.3839811,20.4499639 14.9439601,19.9086533 C14.2477416,19.0522164 14.6090336,17.6281563 15.718645,17.5948096 C15.7200105,17.5947575 15.9751576,17.5889218 16.088708,17.5860561 C18.8360294,17.5022725 21.3011555,16.5009339 23.0661765,14.4098878 C23.3088761,14.1107575 23.0377626,13.6999158 22.5117647,13.6874108 C22.5071429,13.6873066 22.5026786,13.6853267 22.4995273,13.681992 C21.8758929,13.0195391 21.3277311,12.785487 20.839916,12.5396072 C19.817437,12.0228377 19.9136555,12.4692144 19.6758403,9.96274148 C19.6115021,9.287002 19.4825105,8.36543487 18.8840861,8.01211623 C18.7272584,7.91947495 18.5558298,7.87977154 18.3778361,7.87977154 C18.2019433,7.87977154 18.116229,7.91535872 18.0816702,7.92296593 C17.7539391,7.99502605 17.567542,8.17937074 17.3340861,8.39294589 C16.2308298,9.40220441 15.3490021,9.12824048 14.0328256,9.11667335 C12.7966912,9.10593988 11.7053046,9.96138677 11.4965336,11.2750902 L11.496166,11.2758196 C11.3946954,11.963491 11.4603992,12.6622084 11.5690126,12.9762926 C11.5690126,12.9762926 11.2335084,12.7548497 11.0736345,12.5588337 C11.2671218,13.7589499 12.3707983,14.5433267 12.3707983,14.5433267 C12.1969538,14.5829259 11.9469013,14.566513 11.9469013,14.566513 C11.9479517,14.5673988 12.5768382,15.0608257 13.1226891,15.232978 C12.9805147,15.3207735 12.2610294,16.0251182 11.8899685,16.9947255 C11.5427521,17.9021202 11.6841912,18.9914629 11.6841912,18.9914629 L11.9857668,18.545503 C11.9857668,18.545503 11.788813,19.5393908 12.1700105,20.5018597 C12.2964811,20.2155471 12.5727941,19.7044569 12.5727941,19.7044569 C12.5727941,19.7044569 12.5289916,20.7718116 13.0469538,21.6457034 C13.0602416,21.444008 13.1379727,20.930521 13.1379727,20.930521 C13.1379727,20.930521 13.4351891,21.8417194 14.1217962,22.4788497 C15.4070903,23.6103968 18.8102416,23.8147495 21.4003676,21.7955551 L21.4003676,21.7955551 Z" id="Fill-2" fill="#F2D9B4"></path>
                <path d="M2.31481092,14.6483166 C2.30435924,14.6455551 1.31896008,13.9281323 1.17878151,13.6918918 C0.349684874,12.3038878 1.79212185,9.4529018 2.81859244,7.83235671 C5.3552521,3.82731463 9.57752101,0.666569138 11.4952206,1.1179479 L13.4645483,2.12642485 C12.699895,2.57264529 11.9603466,3.12072946 11.5173319,3.4852505 L11.0982668,3.83387976 C11.0982668,3.83387976 9.87452731,4.65123848 9.26591387,5.16649699 C6.82610294,7.23185571 4.42384454,10.4291784 3.53298319,13.5154669 C3.53298319,13.5153627 2.8009979,13.8758717 2.31481092,14.6483166" id="Fill-3" fill="#207EAC"></path>
                <path d="M11.4952731,1.11789579 L11.4952731,1.11789579 C9.57752101,0.666517034 5.35535714,3.82721042 2.81864496,7.83230461 C2.81790966,7.8334509 2.81717437,7.8346493 2.81643908,7.83579559 L2.82668067,7.83688978 L4.84795168,9.41554309 C7.06727941,5.92065331 9.85661765,4.11857715 9.93529412,4.06563928 L9.61481092,1.92655311 L10.2151786,1.64138677 L11.420063,2.02846894 L11.3278887,1.62914228 L11.4952731,1.11789579" id="Fill-4" fill="#4EB1D3"></path>
                <path d="M13.4645483,2.12637275 L11.5173319,3.48514629 L11.3810924,3.59091784 L9.65435924,2.19129459 L9.61470588,1.92660521 L10.2150735,1.64143888 C10.2459034,1.65133868 11.3724265,2.01325451 11.419958,2.02852104 L11.4400735,1.2864008 L11.4952206,1.1179479 L12.0226366,0.917450902 C12.0233718,0.917971944 13.4625525,2.12465331 13.4645483,2.12637275" id="Fill-5" fill="#FACD55"></path>
                <path d="M17.3071429,0.793755511 C16.0193803,0.793755511 14.5736345,1.46569138 13.4645483,2.12632064 C13.3089811,2.21713828 13.1546218,2.31217635 13.0034139,2.40903808 L12.4231092,1.9264489 L12.6338761,2.65314629 C12.5542017,2.70743888 12.4764181,2.76157515 12.4002626,2.8153988 L11.201208,2.45218036 L11.9945903,3.11103808 C11.8134454,3.24723848 11.6516282,3.37473747 11.5173845,3.48514629 L9.6147584,1.92660521 L9.7154937,2.62511423 L11.0983193,3.83382766 C11.0983193,3.83382766 9.87457983,4.65113427 9.26596639,5.16644489 C6.82615546,7.2317515 4.42389706,10.4291263 3.53303571,13.5154148 L3.58366597,13.4871743 C3.59054622,13.4833707 3.59747899,13.4802445 3.60435924,13.476493 C3.62914916,13.4632585 3.65383403,13.4506493 3.67862395,13.4382485 C3.69453782,13.4303287 3.71034664,13.4223046 3.7262605,13.4147495 C3.75173319,13.4026092 3.7772584,13.3913026 3.80278361,13.3801523 C3.81780462,13.3735351 3.83293067,13.3666052 3.8480042,13.3604048 C3.87563025,13.3488898 3.90320378,13.3384689 3.93082983,13.3281002 C3.94359244,13.3233066 3.95635504,13.3180441 3.96911765,13.3135631 C4.00934874,13.2992345 4.04942227,13.2860521 4.08939076,13.2742244 C4.69506303,13.094986 5.51906513,12.9797315 6.48366597,13.3860922 C6.96806723,12.173992 7.54679622,10.9407896 8.45882353,9.75583567 C9.19831933,8.79503407 9.90913866,7.93729459 10.7623424,7.46554309 C12.3777836,5.96004409 16.7318277,4.36362325 18.1267332,5.74740681 C18.4565651,5.21214028 18.7428046,4.70542685 18.9786239,4.07022445 C19.5606618,2.54268537 19.571271,0.793755511 17.3071429,0.793755511" id="Fill-6" fill="#131B23"></path>
                <path d="M23.1727941,17.0661603 C23.1727941,17.0661603 23.1752626,16.1896633 22.7665966,15.5070461 C22.4515231,15.8585411 21.5770483,16.5548617 20.4296218,17.0952866 C19.3536239,17.6020521 17.9178046,18.0459279 16.1384979,18.1047014 L16.1384454,18.1047014 C15.6402311,18.1261683 15.3320378,18.0457194 15.1585084,18.6219399 C15.144958,18.6715952 15.136187,18.7271904 15.1311975,18.7840882 L15.1309874,18.7899238 C15.1309349,18.7899238 15.1308298,18.7898717 15.1307773,18.7898717 C15.1292542,18.8082645 15.1280987,18.8267094 15.1273634,18.8451543 C15.1256303,18.8978317 15.1261555,18.9442044 15.1282563,18.9846894 C15.1283088,18.9856794 15.1283613,18.9866172 15.1284139,18.9876072 C15.1285714,18.9906293 15.128729,18.9935471 15.1288866,18.9964649 C15.1304622,19.0217876 15.1326681,19.0460681 15.1353466,19.0688898 C15.1354517,19.069984 15.1356092,19.0712345 15.1357143,19.0723287 C15.1358718,19.0735271 15.1360294,19.0747255 15.136187,19.0759238 C15.1479517,19.1674709 15.166229,19.209988 15.1684349,19.2148337 C15.1685399,19.2150421 15.168645,19.2152505 15.1686975,19.2154068 L15.1709559,19.2230661 C15.3130252,19.6948697 15.6783613,19.9036513 16.1584034,20.0144248 C16.5244223,20.09899 16.9131828,20.1069098 16.9131828,20.1069098 C19.857458,20.1888697 22.3285189,18.3452144 23.1573004,17.6510301 C23.1714811,17.4564729 23.1798319,17.3177194 23.1727941,17.0661603 Z M14.7145483,1.4634509 C15.4179097,1.14175952 16.1717962,0.88759519 16.8948529,0.814336673 C16.1767332,0.974609218 15.3016807,1.34397595 14.264916,1.97334269 C14.2396534,1.98782766 11.8117122,3.61347896 10.3283613,5.07317836 C9.5200105,5.86865331 6.27389706,9.73035671 6.27647059,9.72707415 C6.8697479,8.61329459 7.26055672,8.06651303 8.19973739,6.89479359 C8.73088235,6.23208016 9.29768908,5.58760321 9.87788866,4.99252104 C10.0728992,4.79244088 10.2694853,4.59804008 10.4667017,4.41036072 C10.5419118,4.33876954 12.2381828,2.61563126 14.7145483,1.4634509 L14.7145483,1.4634509 Z" id="Fill-8" fill="#FFFFFF"></path>
                <path d="M21.4003676,21.7955551 C21.0482143,22.0700922 20.6810399,22.3034148 20.3061975,22.499014 C19.4393382,22.1721643 18.9073529,21.4757916 18.9073529,21.4757916 C18.9073529,21.4757916 19.6505777,21.3014509 20.6440126,20.8002605 C21.8522584,20.1911623 22.9814076,19.3112265 23.8445903,18.204012 C23.8103466,18.2703928 23.4519433,20.1964248 21.4003676,21.7955551 Z M19.0411239,12.5116273 C18.6218487,12.2157796 17.9273634,12.4512385 17.7742647,12.9408096 C18.0169118,12.9529499 18.2743697,13.1350541 18.2584559,13.3680641 C18.4297794,13.2035711 18.6733718,13.1106693 18.9103466,13.1150461 C18.7960609,12.9332024 18.8537815,12.6197435 19.0411239,12.5116273 Z M14.6418067,18.4860521 C14.7738971,17.9983567 15.1469013,17.612004 15.718645,17.5948096 C15.7200105,17.5947575 15.9751576,17.5889218 16.088708,17.5860561 C18.8360294,17.5022725 21.3011555,16.5009339 23.0661765,14.4098878 C23.3088761,14.1107575 23.0377626,13.6999158 22.5117647,13.6874108 C22.5096639,13.6873587 22.5042542,13.6874108 22.5042542,13.6874108 C22.4152836,13.7807295 22.3993697,13.9511623 22.2522059,14.2058477 C21.7153361,15.1311663 20.9727941,15.5543046 19.9826155,16.0452305 C16.9467962,17.5446333 15.3725315,16.8469579 14.7407563,17.764982 C14.5571429,18.0351423 14.5536765,18.3369299 14.6418067,18.4860521 C14.6418067,18.4861042 14.6418067,18.4860521 14.6418067,18.4860521 Z M20.1347689,12.1975952 C19.8444328,11.9908978 19.8340861,11.6303367 19.6757878,9.96274148 C19.6251576,9.43086172 19.5343487,8.74673347 19.20625,8.30723447 C19.1383929,8.24840882 19.0430147,8.18082966 18.9055672,8.18082966 C18.6983193,8.17176353 18.4640231,8.38481764 18.3311975,8.53039679 C17.9542017,9.07019639 17.5940126,9.41783567 16.9569328,9.7191022 C16.3121849,10.0085932 15.6994223,10.1135832 15.0632878,10.0936794 C14.5976366,10.0790902 14.1898634,10.0029659 13.7901261,9.99791182 C13.0494748,9.9864489 12.4075105,10.2246172 11.9396534,10.8106854 C11.6188025,11.2126693 11.490021,11.6375792 11.4489496,12.1433026 C11.4505252,12.2042645 11.4532563,12.2617355 11.4567752,12.3158717 C11.4623424,12.3962164 11.4696954,12.4729138 11.4786765,12.5449218 C11.5113445,12.8012224 11.5579307,12.9341924 11.5579307,12.9341924 C11.5579307,12.9361723 11.5576155,12.9381523 11.5570378,12.939976 C11.5609244,12.9525331 11.5648109,12.9646212 11.568855,12.9761363 C11.568855,12.9761363 11.2333508,12.7547455 11.0734769,12.5587295 C11.2348214,13.5591824 12.0285714,14.2707695 12.2881828,14.4797595 C12.3035189,14.4914309 12.318645,14.502998 12.3334559,14.5146172 C12.3347689,14.5156072 12.3358718,14.5168056 12.3368172,14.518004 C12.3585609,14.5346774 12.3705882,14.5432745 12.3705882,14.5432745 C12.1967962,14.5828737 11.9466912,14.5664609 11.9466912,14.5664609 C11.9477941,14.5673467 12.5766807,15.0607735 13.1225315,15.2329259 C13.8466912,14.6258076 14.6677521,14.3927455 15.3417542,14.3204248 C15.7502626,14.0689178 16.1894958,13.8218918 16.6610819,13.5836713 C16.5182773,12.7014429 17.3069328,11.813014 18.2993697,11.7277194 C19.0482143,11.6735832 19.4125,12.0065812 19.6748424,12.3627134 C19.8172269,12.3176433 19.9777836,12.2683527 20.1571954,12.2159359 C20.1496324,12.2109339 20.1421218,12.2047856 20.1347689,12.1975952 Z M20.4930147,18.1395591 C20.4854517,18.1397154 20.4776261,18.1413828 20.4651261,18.1441443 C20.1659664,18.2129218 17.0809874,19.398501 15.1307773,18.7908096 C15.1220063,18.8966854 15.1248424,19.1191182 15.1685399,19.2157715 C15.1685924,19.21598 15.1686975,19.2161884 15.16875,19.2163447 C15.4637605,19.275014 15.8371324,19.3125291 16.2704832,19.3125291 C18.8367647,19.3125291 20.686187,18.154982 20.4930147,18.1395591 Z M6.13581933,17.9018597 C6.13655462,17.9013387 6.13728992,17.9008697 6.13802521,17.9003487 C6.29427521,17.7337194 6.35982143,17.5009178 6.32268908,17.2782244 C6.26502101,16.9578357 5.89905462,16.8930701 5.65709034,16.6442725 C5.6532563,16.6403647 5.64942227,16.6363527 5.64569328,16.6322886 C5.64159664,16.6279118 5.63765756,16.623483 5.63377101,16.6191062 C5.6335084,16.6187936 5.63329832,16.618481 5.63298319,16.6181683 C5.52426471,16.494004 5.48639706,16.3527495 5.49527311,16.2267094 C5.51439076,15.8989739 5.80777311,15.8068016 5.96045168,15.8671383 C5.96045168,15.8671383 6.14154412,15.9096553 6.28177521,16.1037435 C6.28177521,16.1037435 6.28172269,16.1034309 6.28167017,16.1029619 C6.26034664,16.0389259 6.2647584,15.9354469 6.1549895,15.7812705 C5.97510504,15.5284609 5.56192227,15.2713267 4.9762605,15.3944489 L4.97636555,15.3944489 C4.86811975,15.4171663 4.92872899,15.4042445 4.82195378,15.4341002 C4.8052521,15.4387896 4.79007353,15.4433747 4.77689076,15.4488457 C4.74332983,15.4644248 4.71228992,15.4751583 4.6825105,15.4908417 C4.66706933,15.4993868 4.57909664,15.538986 4.47316176,15.6181323 C3.81481092,16.4611784 4.92988445,17.9900721 6.13581933,17.9018597 L6.13581933,17.9018597 Z" id="Fill-9" fill="#E2B986"></path>
                <path d="M15.8426471,12.7128016 C15.8982143,12.7934068 15.9130777,12.8542645 15.8906513,12.8795872 C15.8459034,12.931483 15.6859769,12.8614028 15.4497899,12.7701162 C14.8453782,12.5464329 14.4000525,12.5123567 13.6117647,12.8083607 C13.4124475,12.8838076 13.2711134,12.9420601 13.2033088,12.9320561 C13.0927521,12.9157475 13.1997899,12.71499 13.4413866,12.5202244 C13.927521,12.135487 14.5951681,12.0160641 15.1657038,12.2267214 C15.4154412,12.3179038 15.6959034,12.4999038 15.8426471,12.7128016 Z M15.7228992,13.3261723 C15.5571954,13.2006012 15.2520483,13.1164008 14.9352416,13.1698076 C14.86875,13.1798637 14.8073529,13.2002886 14.7469013,13.2163888 C14.7247374,13.2218076 14.7035714,13.2295711 14.6829307,13.2381683 C14.5519433,13.2929299 14.4385504,13.3519118 14.3285189,13.4565371 C14.2022584,13.5775752 14.1663866,13.6899639 14.2028887,13.7176313 C14.2387605,13.7460281 14.3261555,13.70398 14.461187,13.6497916 C14.9135504,13.4632064 15.2337185,13.4582565 15.538708,13.4793587 C15.6858193,13.4891543 15.7842437,13.4979599 15.8070903,13.4582044 C15.8232143,13.4312144 15.7939601,13.3799439 15.7228992,13.3261723 Z M5.98098739,15.6279279 L5.98109244,15.6280321 L5.98125,15.6281363 C6.05551471,15.6867014 6.11244748,15.7492265 6.15488445,15.8089379 C6.29406513,16.0043287 6.24978992,16.1183327 6.30688025,16.1737715 C6.32746849,16.1938317 6.35688025,16.2001363 6.3862395,16.1882565 C6.46512605,16.1559519 6.50388655,16.0314749 6.51129202,15.9446172 L6.51134454,15.9440962 C6.53114496,15.7352104 6.41985294,15.500481 6.27237395,15.3341643 L6.2720063,15.3336954 C6.18177521,15.2296954 6.06297269,15.1327816 5.92169118,15.0547295 C5.78014706,14.976521 5.61591387,14.9172265 5.43534664,14.8894549 C5.12331933,14.8413106 4.81638655,14.9029499 4.73067227,14.9283246 L4.73114496,14.9282204 C4.68697479,14.9409339 4.63235294,14.9523447 4.58539916,14.9706333 C4.07652311,15.167483 3.74164916,15.5289299 3.59264706,16.0075591 L3.59259454,16.0077154 L3.59254202,16.007976 C3.53744748,16.1901844 3.5154937,16.3660882 3.5154937,16.5286012 C3.5154937,16.6687094 3.53177521,16.7989178 3.55719538,16.9149539 L3.55719538,16.9150581 L3.5572479,16.9152665 L3.55719538,16.9150581 C3.60026261,17.1102926 3.68828782,17.3301202 3.82573529,17.4744489 L3.82615546,17.4748657 C3.99795168,17.6590541 4.18629202,17.6238317 4.10588235,17.4524609 C4.08671218,17.404994 3.98293067,17.2109579 3.96896008,16.8597234 C3.95987395,16.6298918 3.99164916,16.3906814 4.07668067,16.1724168 C4.1237395,16.0542966 4.18823529,15.9394068 4.27216387,15.8361363 C4.44511555,15.6262084 4.65761555,15.5322645 4.68245798,15.5185611 C4.71223739,15.5028257 4.74327731,15.4920922 4.77683824,15.476513 C4.78996849,15.4710942 4.80514706,15.4664569 4.82190126,15.4618196 C4.92867647,15.4319639 4.86811975,15.4448858 4.97631303,15.4221162 L4.97620798,15.4221162 C5.38335084,15.336509 5.73377101,15.4301403 5.98098739,15.6279279 Z M5.89411765,16.4078758 C5.83786765,16.3636914 5.81176471,16.3259679 5.79621849,16.2679238 C5.77326681,16.1621523 5.7852416,16.1007214 5.87636555,16.0372064 C5.94653361,15.9895311 6.0029937,15.9665531 6.00320378,15.9365932 C6.00635504,15.8799038 5.77163866,15.8215471 5.6075105,15.9818196 C5.47127101,16.1258357 5.4282563,16.4260601 5.64564076,16.6600601 C5.88765756,16.9191222 6.26402311,16.9802405 6.32263655,17.305996 C6.33035714,17.3521603 6.33608193,17.4035351 6.33203782,17.4542846 C6.33287815,17.5125371 6.31323529,17.5963727 6.31228992,17.6016353 C6.2394958,17.9162926 5.9384979,18.216517 5.44217437,18.1400281 C5.35073529,18.1267936 5.2914916,18.1156433 5.27384454,18.1407054 C5.23555672,18.1935391 5.44826681,18.43499 5.83765756,18.4262365 C6.21864496,18.4182124 6.59658613,18.1352345 6.7177521,17.7099078 C6.71911765,17.7043848 6.75488445,17.5838156 6.75782563,17.4757515 C6.76465336,17.3957194 6.75882353,17.3133948 6.74380252,17.2272665 C6.64453782,16.6811102 6.09753151,16.5689299 5.89411765,16.4078758 Z M19.1718487,12.5087094 C19.021271,12.4854188 18.8731618,12.6325611 18.8409139,12.8373828 C18.808666,13.0422044 18.9046218,13.2271222 19.0551996,13.2504649 C19.2057248,13.2737555 19.3538866,13.1266132 19.3861345,12.9217916 C19.4183298,12.7169699 19.3223739,12.5320521 19.1718487,12.5087094 Z M17.5176471,13.1061884 C17.4348739,13.255988 17.5356618,13.4687295 17.7427521,13.5812745 C17.9497899,13.6938717 18.1847689,13.6637034 18.267542,13.5138517 C18.3502626,13.3640521 18.2495273,13.1513106 18.0423845,13.0387655 C17.8352941,12.9262204 17.6003676,12.9563888 17.5176471,13.1061884 Z M11.4568803,7.04641683 C14.3057773,5.21453707 17.1514706,5.00393186 18.1264181,5.74761523 C18.1264706,5.74745892 18.1265231,5.74740681 18.1265756,5.74730261 C18.1247899,5.74245691 18.1091387,5.69952305 18.1030462,5.68774749 C17.8555147,5.16592385 17.2778887,4.80192385 16.7633403,4.65587575 C16.8536239,4.74888176 16.9841912,4.91915832 17.0369748,5.02034469 C16.648687,4.75575952 16.1326681,4.5227495 15.5941702,4.41202806 C15.5941702,4.41202806 15.6582983,4.45772345 15.6692752,4.46788377 C15.7766282,4.56709018 15.9194853,4.72381964 15.9779412,4.85840481 C15.4632353,4.65337475 14.812605,4.53848497 14.2556197,4.64488176 C14.2477941,4.64639279 14.1859769,4.66087776 14.1859769,4.66087776 C14.1859769,4.66087776 14.2585084,4.6787495 14.2746324,4.68354309 C14.4593487,4.73783567 14.7228992,4.84949499 14.8390756,5.00252505 C13.9144958,4.84121042 12.8973739,5.01977154 12.3488445,5.32406012 C12.4193803,5.32114228 12.4186975,5.32082966 12.4783613,5.32239279 C12.6801471,5.32770741 13.0866597,5.35490581 13.2573529,5.46265731 C12.6741597,5.58030862 11.8301471,5.83911022 11.3758403,6.22676553 C11.4560399,6.21749098 11.911292,6.15991583 12.097584,6.18961523 C9.59679622,7.6092986 8.45866597,9.75567936 8.45866597,9.75567936 C9.19595588,8.80253707 10.1524685,7.88513828 11.4568803,7.04641683 L11.4568803,7.04641683 Z" id="Fill-10" fill="#916D53"></path>
                <path d="M18.1783088,11.0485411 C18.1744223,10.8537756 18.2054622,10.5319279 18.3903361,10.4720601 C18.3905462,10.472008 18.3904412,10.472008 18.3907038,10.4719559 C18.7066176,10.3632665 19.124895,11.1658798 19.1441176,11.878509 C18.8944853,11.754501 18.6011555,11.7018758 18.2994748,11.7278236 C18.2236345,11.4984088 18.1872899,11.2822806 18.1783088,11.0485411" id="Fill-11" fill="#5B453E"></path>
            </g>
        </g>
    </g>
</svg>