<?xml version="1.0" encoding="UTF-8"?>
<svg width="29px" height="29px" viewBox="0 0 29 29" version="1.1" xmlns="http://www.w3.org/2000/svg" xmlns:xlink="http://www.w3.org/1999/xlink">
    <!-- Generator: Sketch 43.2 (39069) - http://www.bohemiancoding.com/sketch -->
    <title>Pinterest Icon</title>
    <desc>Created with Sketch.</desc>
    <defs></defs>
    <g id="Page-1" stroke="none" stroke-width="1" fill="none" fill-rule="evenodd">
        <g id="Marketing-Channels---Scheduled-Posts" transform="translate(-870.000000, -160.000000)">
            <g id="Pinterest-Icon" transform="translate(870.000000, 160.000000)">
                <rect id="Base" fill="#CB1F27" x="0" y="0" width="29" height="29" rx="14.5"></rect>
                <rect id="Base" stroke="#DC565C" fill="#FFFFFF" x="2" y="2" width="25" height="25" rx="12.5"></rect>
                <path d="M2,14.4998535 C2,19.6182683 5.07791766,24.0154136 9.48229499,25.9486616 C9.44713888,25.0758339 9.47604502,24.028011 9.69987227,23.0783299 C9.94020336,22.0636115 11.3082644,16.267188 11.3082644,16.267188 C11.3082644,16.267188 10.9089496,15.4690653 10.9089496,14.2895077 C10.9089496,12.437117 11.9825782,11.0536587 13.3196823,11.0536587 C14.4566896,11.0536587 15.0060039,11.9076392 15.0060039,12.9302675 C15.0060039,14.073205 14.2770028,15.7828263 13.9021019,17.366279 C13.5889196,18.6922194 14.5669431,19.7737327 15.8750435,19.7737327 C18.2433936,19.7737327 19.8385045,16.7319214 19.8385045,13.1279184 C19.8385045,10.3883448 17.9932969,8.33781498 14.6371577,8.33781498 C10.8453756,8.33781498 8.4831778,11.165472 8.4831778,14.3239794 C8.4831778,15.4130121 8.8042703,16.1809599 9.30719802,16.7756702 C9.53844712,17.0488073 9.5705759,17.1586675 9.48688482,17.4723308 C9.42692411,17.702305 9.28922934,18.2560008 9.23219831,18.4754284 C9.14899551,18.7920213 8.89245355,18.9052018 8.60632185,18.7883105 C6.8598443,18.0753417 6.04646857,16.1627963 6.04646857,14.0128551 C6.04646857,10.4620733 9.04118343,6.20437722 14.9802227,6.20437722 C19.752665,6.20437722 22.893766,9.65779842 22.893766,13.364826 C22.893766,18.2683052 20.1676048,21.9315839 16.1490658,21.9315839 C14.7995594,21.9315839 13.5301307,21.2021117 13.0952692,20.373521 C13.0952692,20.373521 12.3695884,23.2535204 12.2158781,23.8096575 C11.95084,24.7734007 11.4320921,25.7366556 10.9577775,26.4874164 C12.0819919,26.8192432 13.2695849,27 14.5004395,27 C21.4031469,27 27,21.403571 27,14.4998535 C27,7.596429 21.4031469,2 14.5004395,2 C7.59704845,2 2,7.596429 2,14.4998535 Z" id="Shape" fill="#CB1F27" fill-rule="nonzero"></path>
            </g>
        </g>
    </g>
</svg>