<?xml version="1.0" encoding="UTF-8"?>
<svg width="92px" height="92px" viewBox="0 0 92 92" version="1.1" xmlns="http://www.w3.org/2000/svg" xmlns:xlink="http://www.w3.org/1999/xlink">
    <!-- Generator: Sketch 43.2 (39069) - http://www.bohemiancoding.com/sketch -->
    <title>Group 2</title>
    <desc>Created with Sketch.</desc>
    <defs></defs>
    <g id="Page-1" stroke="none" stroke-width="1" fill="none" fill-rule="evenodd">
        <g id="Sign-up-/-Sign-In" transform="translate(-270.000000, -272.000000)">
            <g id="Group-2" transform="translate(269.463333, 271.907778)">
                <path d="M0.52,46.12 C0.52,71.3107429 20.9357714,91.72 46.12,91.72 C71.3042286,91.72 91.72,71.3107429 91.72,46.12 C91.72,20.9422857 71.3042286,0.52 46.12,0.52 C20.9357714,0.52 0.52,20.9422857 0.52,46.12 Z" id="oval" fill="#2BBF88"></path>
                <path d="M51.8160961,17.1762246 C52.1330544,17.9224 52.3020988,18.711214 52.3020988,19.5426667 C52.3020988,20.3741193 52.1330544,21.1842526 51.8372267,21.8877895 C62.6771996,24.5527018 70.7702009,34.4235368 70.7702009,46.1704702 C70.7702009,57.8960842 62.6771996,67.7882386 51.8372267,70.4318316 C52.1330544,71.178007 52.3020988,71.9455018 52.3020988,72.7769544 C52.3020988,73.6297263 52.1330544,74.4398596 51.8160961,75.1647158 C65.2339964,72.4145263 75.3344,60.4544 75.3344,46.1491509 C75.3555306,31.8652211 65.2339964,19.9050947 51.8160961,17.1762246 Z M40.1942928,70.4744702 C29.3543198,67.8308772 21.2613186,57.9174035 21.2613186,46.1917895 C21.2613186,34.4448561 29.3543198,24.5527018 40.1942928,21.9091088 C39.898465,21.1842526 39.7294206,20.3954386 39.7294206,19.563986 C39.7294206,18.7325333 39.898465,17.9224 40.2154233,17.1975439 C26.7975231,19.9477333 16.6971194,31.9078596 16.6971194,46.2131088 C16.6971194,60.5183579 26.8186536,72.4784842 40.2154233,75.2286737 C39.898465,74.4824982 39.7294206,73.6936842 39.7294206,72.8409123 C39.7294206,71.9668211 39.898465,71.178007 40.1942928,70.4744702 Z" id="Shape" fill="#FFFFFF"></path>
                <ellipse id="Oval" fill="#FFFFFF" cx="46.0051944" cy="17.563986" rx="3.99367424" ry="4.02934737"></ellipse>
                <ellipse id="Oval" fill="#FFFFFF" cx="46.0051944" cy="10.3114105" rx="2.49340508" ry="2.51567719"></ellipse>
                <path d="M61.2403221,51.9906386 C61.2403221,54.5702737 60.1415334,57.2138667 58.0284783,59.3244772 C56.2112508,61.1579368 53.5910624,62.5863298 50.2313047,63.2472281 C49.0057328,63.4817404 47.6956386,63.6309754 46.2587611,63.6309754 C39.3068096,63.6309754 33.4959079,60.7741895 32.3759887,59.8787789 C31.4251139,59.1112842 31.9322471,58.7488561 32.1224221,58.4077474 C33.2212107,56.5529684 35.3131353,53.1845193 35.7357464,52.5875789 C36.4330546,51.6068912 36.7077518,51.6282105 37.9544543,52.4596632 C39.3068096,53.3550737 43.5117894,55.0819368 46.3010222,55.0819368 C48.6042523,55.0819368 49.6819104,53.952014 49.6819104,52.8007719 C49.6819104,51.2018246 46.026325,50.6688421 41.2719509,49.6881544 C36.0315741,48.6008702 30.7911973,46.4049825 30.7911973,39.7107228 C30.7911973,34.5727719 35.0384382,30.4581474 41.2719509,29.1789895 C42.539784,28.9231579 43.8921393,28.7312842 45.3078862,28.7312842 C48.2450329,28.7312842 50.0199992,29.0937123 51.6047906,29.5627368 C53.5488013,30.1170386 55.2181149,30.8418947 56.4648175,31.502793 C56.5493397,31.5454316 57.0142118,31.8225825 57.098734,31.8865404 C57.3945617,32.1210526 57.6481283,32.4408421 57.6058672,32.8672281 C57.5636061,33.2509754 57.1621257,33.9758316 55.9788148,36.3849123 C55.6407259,37.0884491 54.7109817,38.9432281 54.4362845,39.1564211 C54.3517623,39.2203789 54.1827179,39.4122526 53.7178458,39.4122526 C53.0839292,39.3909333 52.386621,39.007186 52.3443599,38.9858667 C51.4146156,38.5168421 50.2101742,37.8772632 49.3860827,37.5574737 C47.9914663,37.0244912 46.7870248,36.6833825 45.4980612,36.6833825 C43.3004838,36.6833825 42.1171729,37.5574737 42.1171729,38.7513544 C42.1171729,40.009193 44.4837947,40.4782175 48.7310356,41.2883509 C49.9777381,41.5228632 52.0696627,42.0771649 52.9782765,42.3756351 C57.3100395,43.7613895 61.2403221,46.298386 61.2403221,51.9906386 Z" id="Shape" fill="#FFFFFF"></path>
                <ellipse id="Oval" fill="#FFFFFF" cx="46.0051944" cy="72.7982737" rx="3.99367424" ry="4.02934737"></ellipse>
                <ellipse id="Oval" fill="#FFFFFF" cx="46.0051944" cy="82.0508491" rx="2.49340508" ry="2.51567719"></ellipse>
            </g>
        </g>
    </g>
</svg>