<?xml version="1.0" encoding="UTF-8"?>
<svg width="25px" height="19px" viewBox="0 0 25 19" version="1.1" xmlns="http://www.w3.org/2000/svg" xmlns:xlink="http://www.w3.org/1999/xlink">
    <!-- Generator: Sketch 43.2 (39069) - http://www.bohemiancoding.com/sketch -->
    <title>Squarespace Icon</title>
    <desc>Created with Sketch.</desc>
    <defs></defs>
    <g id="Page-1" stroke="none" stroke-width="1" fill="none" fill-rule="evenodd">
        <g id="Marketing-Channels" transform="translate(-152.000000, -542.000000)" fill-rule="nonzero" fill="#1A1918">
            <g id="Squarespace-Icon" transform="translate(152.000000, 542.000000)">
                <path d="M15.8847868,3.78789216 C15.4174419,3.33859804 14.659593,3.33859804 14.1925388,3.78789216 L6.57655039,11.1082941 C5.64137597,12.0064167 4.12625969,12.0064167 3.19176357,11.1082941 C2.25629845,10.209799 2.25629845,8.75331863 3.19176357,7.85435784 L10.6611434,0.675245098 C9.72645349,-0.223436275 8.21075581,-0.223436275 7.27606589,0.675245098 L1.49874031,6.22808824 C-0.370445736,8.02507843 -0.370445736,10.9380392 1.49874031,12.7352157 C3.36841085,14.532299 6.39893411,14.532299 8.26860465,12.7352157 L15.8847868,5.41472059 C16.3518411,4.96551961 16.3518411,4.23709314 15.8847868,3.78789216 L15.8847868,3.78789216 Z M18.4234496,1.34797549 C16.5537791,-0.449294118 13.5232558,-0.449294118 11.6535853,1.34797549 L4.0377907,8.6680049 C3.57073643,9.11692647 3.57073643,9.84581863 4.0377907,10.2948333 C4.50513566,10.7440343 5.2625969,10.7440343 5.73003876,10.2948333 L13.3465116,2.97480392 C14.2812016,2.07612255 15.7963178,2.07612255 16.730814,2.97480392 C17.1986434,3.42372549 17.9562016,3.42372549 18.4235465,2.97480392 C18.8908915,2.52513725 18.8908915,1.79717647 18.4235465,1.34797549 L18.4234496,1.34797549 Z M20.9623062,8.6680049 C20.4949612,8.21926961 19.7369186,8.21926961 19.2695736,8.6680049 L11.6535853,15.9883137 C10.7188953,16.8867157 9.20329457,16.8867157 8.26860465,15.9883137 C7.80155039,15.5393922 7.04389535,15.5393922 6.57655039,15.9883137 C6.10852713,16.437701 6.10852713,17.1661275 6.57655039,17.6148627 C8.44544574,19.4119461 11.4767442,19.4119461 13.3464147,17.6148627 L20.9623062,10.2948333 C21.4293605,9.84591176 21.4293605,9.11701961 20.9623062,8.6680049 Z M23.5012597,6.22818137 C21.6315891,4.43137745 18.6005814,4.43137745 16.7313953,6.22818137 L9.11492248,13.5486765 C8.64757752,13.9974118 8.64757752,14.7263039 9.11492248,15.1752255 C9.58255814,15.6247059 10.340407,15.6247059 10.8074612,15.1752255 L18.4234496,7.85491667 C19.3578488,6.95632843 20.8737403,6.95632843 21.8082364,7.85491667 C22.7429264,8.75341176 22.7429264,10.2098922 21.8082364,11.1083873 L14.3388566,18.2879657 C15.2735465,19.1860882 16.788469,19.1860882 17.7239341,18.2879657 L23.5012597,12.7351225 C25.3704457,10.9378529 25.3704457,8.02498529 23.5012597,6.22818137 L23.5012597,6.22818137 Z" id="Shape"></path>
            </g>
        </g>
    </g>
</svg>