<?xml version="1.0" encoding="UTF-8"?>
<svg width="25px" height="10px" viewBox="0 0 25 10" version="1.1" xmlns="http://www.w3.org/2000/svg" xmlns:xlink="http://www.w3.org/1999/xlink">
    <!-- Generator: Sketch 43.2 (39069) - http://www.bohemiancoding.com/sketch -->
    <title>Stripe Icon</title>
    <desc>Created with Sketch.</desc>
    <defs></defs>
    <g id="Page-1" stroke="none" stroke-width="1" fill="none" fill-rule="evenodd">
        <g id="Marketing-Channels" transform="translate(-152.000000, -636.000000)" fill-rule="nonzero" fill="#6772E5">
            <g id="Stripe-Icon" transform="translate(152.000000, 636.000000)">
                <path d="M1.75693359,3.9011215 C1.75693359,3.64196262 1.97915039,3.54224299 2.34726562,3.54224299 C2.875,3.54224299 3.54165039,3.69514019 4.06943359,3.96761682 L4.06943359,2.40579439 C3.49306641,2.18649533 2.92363281,2.10009346 2.34726563,2.10009346 C0.9375,2.10009346 0,2.80457944 0,3.98093458 C0,5.81514019 2.63886719,5.52275701 2.63886719,6.31364486 C2.63886719,6.61929907 2.36113281,6.71901869 1.9722168,6.71901869 C1.39584961,6.71901869 0.659716797,6.49303738 0.0763671875,6.18733645 L0.0763671875,7.76906542 C0.722216797,8.03490654 1.375,8.14785047 1.9722168,8.14785047 C3.41665039,8.14785047 4.4097168,7.46336449 4.4097168,6.27373832 C4.4027832,4.29327103 1.75693359,4.64546729 1.75693359,3.9011215 L1.75693359,3.9011215 Z M6.45136719,0.770934579 L4.75693359,1.11649533 L4.75,6.43985981 C4.75,7.42350467 5.52084961,8.14785047 6.54863281,8.14785047 C7.11806641,8.14785047 7.5347168,8.04817757 7.76386719,7.9285514 L7.76386719,6.57943925 C7.54169922,6.66584112 6.44443359,6.97154206 6.44443359,5.98794393 L6.44443359,3.62864486 L7.76386719,3.62864486 L7.76386719,2.21308411 L6.44443359,2.21308411 L6.45136719,0.770934579 L6.45136719,0.770934579 Z M9.92363281,2.70485981 L9.8125,2.21308411 L8.3125,2.21308411 L8.3125,8.0282243 L10.0486328,8.0282243 L10.0486328,4.08724299 C10.4583008,3.57551402 11.1527832,3.6685514 11.3680664,3.74163551 L11.3680664,2.21308411 C11.1458496,2.13331776 10.3333496,1.9871028 9.92363281,2.70485981 L9.92363281,2.70485981 Z M11.7916504,2.21308411 L13.5347168,2.21308411 L13.5347168,8.0282243 L11.7916504,8.0282243 L11.7916504,2.21308411 L11.7916504,2.21308411 Z M11.7916504,1.70799065 L13.5347168,1.34911215 L13.5347168,0 L11.7916504,0.352242991 L11.7916504,1.70794393 L11.7916504,1.70799065 Z M17.1597168,2.10009346 C16.4791504,2.10009346 16.0416504,2.40579439 15.7986328,2.61850467 L15.7083008,2.2064486 L14.1805664,2.2064486 L14.1805664,9.95551402 L15.9166504,9.60331776 L15.9236328,7.72252336 C16.1736328,7.8953271 16.5416504,8.14121495 17.1527832,8.14121495 C18.3958496,8.14121495 19.5277832,7.18420561 19.5277832,5.07747664 C19.5208496,3.15014019 18.375,2.10009346 17.1597168,2.10009346 L17.1597168,2.10009346 Z M16.7430664,6.67911215 C16.3333496,6.67911215 16.0902344,6.53957944 15.9236328,6.3667757 L15.9166504,3.9011215 C16.0972168,3.70841121 16.3472168,3.57551402 16.7430664,3.57551402 C17.375,3.57551402 17.8125,4.25336449 17.8125,5.12397196 C17.8125,6.01453271 17.3819336,6.67911215 16.7430664,6.67911215 L16.7430664,6.67911215 Z M25,5.14392523 C25,3.44257009 24.1388672,2.10009346 22.4930664,2.10009346 C20.8402344,2.10009346 19.8402344,3.44261682 19.8402344,5.13065421 C19.8402344,7.13102804 21.0208496,8.14121495 22.7152344,8.14121495 C23.5416504,8.14121495 24.1666504,7.9617757 24.6388672,7.70925234 L24.6388672,6.38004673 C24.1666992,6.60602804 23.625,6.74560748 22.9375,6.74560748 C22.2638672,6.74560748 21.6666504,6.51962617 21.5902832,5.73542056 L24.9861328,5.73542056 C24.9861328,5.64897196 25,5.30341121 25,5.14392523 Z M21.5694336,4.51257009 C21.5694336,3.76158879 22.0486328,3.44920561 22.4861328,3.44920561 C22.9097168,3.44920561 23.3611328,3.76158879 23.3611328,4.51257009 L21.5694336,4.51257009 Z" id="Shape"></path>
            </g>
        </g>
    </g>
</svg>