<?xml version="1.0" encoding="UTF-8"?>
<svg width="60px" height="60px" viewBox="0 0 60 60" version="1.1" xmlns="http://www.w3.org/2000/svg" xmlns:xlink="http://www.w3.org/1999/xlink">
    <!-- Generator: Sketch 43.2 (39069) - http://www.bohemiancoding.com/sketch -->
    <title>Group 4</title>
    <desc>Created with Sketch.</desc>
    <defs></defs>
    <g id="Page-1" stroke="none" stroke-width="1" fill="none" fill-rule="evenodd">
        <g id="Reports" transform="translate(-1207.000000, -190.000000)">
            <g id="Group-23" transform="translate(30.000000, 160.000000)">
                <g id="Group-20" transform="translate(1157.000000, 0.000000)">
                    <g id="Group-19" transform="translate(20.000000, 30.000000)">
                        <g id="Group-4">
                            <g id="Icon">
                                <rect id="Base" fill="#313D4F" x="0" y="0" width="60" height="60" rx="30"></rect>
                                <rect id="Base" stroke="#FFFFFF" stroke-width="2" opacity="0.202955163" x="5" y="5" width="50" height="50" rx="25"></rect>
                            </g>
                            <path d="M34.8,25.2 C34.8,22.5528 32.6472,20.4 30,20.4 C27.3528,20.4 25.2,22.5528 25.2,25.2 C25.2,27.8472 27.3528,30 30,30 C32.6472,30 34.8,27.8472 34.8,25.2 L34.8,25.2 Z M36,42 L36,39.6 L39.3408,39.6 C38.3496,35.0568 34.542,32.4 30,32.4 C25.458,32.4 21.6504,35.0568 20.6592,39.6 L36,39.6 L36,42 L18,42 C18,36.534 21.0996,32.4576 25.4904,30.8076 C23.8512,29.4888 22.8,27.468 22.8,25.2 C22.8,21.2232 26.0232,18 30,18 C33.9768,18 37.2,21.2232 37.2,25.2 C37.2,27.468 36.1488,29.4888 34.5096,30.8076 C38.9004,32.4576 42,36.534 42,42 L36,42 Z" id="Icon" fill="#FFFFFF"></path>
                        </g>
                    </g>
                </g>
            </g>
        </g>
    </g>
</svg>