<?xml version="1.0" encoding="UTF-8"?>
<svg width="25px" height="25px" viewBox="0 0 25 25" version="1.1" xmlns="http://www.w3.org/2000/svg" xmlns:xlink="http://www.w3.org/1999/xlink">
    <!-- Generator: Sketch 43.2 (39069) - http://www.bohemiancoding.com/sketch -->
    <title>Tablets Icon</title>
    <desc>Created with Sketch.</desc>
    <defs></defs>
    <g id="Page-1" stroke="none" stroke-width="1" fill="none" fill-rule="evenodd">
        <g id="Marketing-Channels" transform="translate(-153.000000, -894.000000)">
            <g id="Tablets-Icon" transform="translate(153.000000, 894.000000)">
                <g id="Icon">
                    <rect id="Base" fill="#7F8FA4" x="0" y="0" width="25" height="25" rx="12.5"></rect>
                    <rect id="Base" stroke="#FFFFFF" stroke-width="0.833333333" opacity="0.202955163" x="2.08333333" y="2.08333333" width="20.8333333" height="20.8333333" rx="10.4166667"></rect>
                </g>
                <g id="hand-touching-tablet-screen" transform="translate(7.000000, 8.000000)" fill-rule="nonzero" fill="#FFFFFF">
                    <path d="M11.25,0.203333333 L0.75,0.203333333 C0.33648,0.203333333 0,0.536666667 0,0.947380952 L0,7.64380952 C0,8.05452381 0.33648,8.38785714 0.75,8.38785714 L5.04864,8.38785714 C4.8852,8.10380952 4.68456,7.73809524 4.43496,7.27166667 L1.12512,7.27166667 L1.12512,1.31928571 L10.87512,1.31928571 L10.87512,7.27166667 L10.38024,7.27166667 L10.38024,8.0747619 C10.38024,8.1002381 10.37664,8.2197619 10.34952,8.38738095 L11.25,8.38738095 C11.66352,8.38738095 12,8.05380952 12,7.64333333 L12,0.947380952 C12,0.536666667 11.66352,0.203333333 11.25,0.203333333 Z M11.43384,4.66761905 C11.22624,4.66761905 11.05896,4.50119048 11.05896,4.29571429 C11.05896,4.0902381 11.22624,3.92357143 11.43384,3.92357143 C11.64048,3.92357143 11.80872,4.09047619 11.80872,4.29571429 C11.80872,4.50095238 11.64048,4.66761905 11.43384,4.66761905 Z" id="Shape"></path>
                    <path d="M9.37248,4.38238095 L9.33024,4.38238095 C9.08448,4.38238095 8.88432,4.58047619 8.88432,4.82380952 L8.88432,5.21857143 L8.8296,5.21857143 L8.8296,4.82380952 C8.8296,4.5802381 8.62896,4.38238095 8.38416,4.38238095 L8.34048,4.38238095 C8.09544,4.38238095 7.89552,4.58047619 7.89552,4.82380952 L7.89552,5.21857143 L7.84032,5.21857143 L7.84032,4.82380952 C7.84032,4.5802381 7.64016,4.38238095 7.39536,4.38238095 L7.3512,4.38238095 C7.1064,4.38238095 6.90624,4.58047619 6.90624,4.82380952 L6.90624,5.21857143 L6.8772,5.21857143 L6.8772,2.69619048 C6.8772,2.45119048 6.67728,2.25190476 6.42936,2.25190476 L6.38592,2.25166667 C6.13944,2.25166667 5.9388,2.45095238 5.9388,2.69619048 L5.9388,6.55547619 C5.81928,6.42166667 5.71416,6.2852381 5.61792,6.16214286 C5.40384,5.88738095 5.2356,5.6697619 5.04552,5.62642857 C4.83456,5.57666667 4.63968,5.64642857 4.54584,5.79738095 C4.45776,5.94095238 4.4712,6.13857143 4.58256,6.35285714 C4.8264,6.81547619 5.99784,8.84785714 5.99856,8.84785714 C6.0912,9.0702381 6.49992,9.79690476 7.87608,9.79690476 L7.87608,9.74833333 L7.87752,9.79690476 C8.87832,9.79690476 9.35232,9.32833333 9.57384,8.93547619 C9.81288,8.51119048 9.81672,8.09309524 9.81672,8.075 L9.81672,4.82380952 C9.81768,4.58 9.6168,4.38238095 9.37248,4.38238095 Z" id="Shape"></path>
                </g>
            </g>
        </g>
    </g>
</svg>