<?xml version="1.0" encoding="UTF-8"?>
<svg width="60px" height="60px" viewBox="0 0 60 60" version="1.1" xmlns="http://www.w3.org/2000/svg" xmlns:xlink="http://www.w3.org/1999/xlink">
    <!-- Generator: Sketch 43.2 (39069) - http://www.bohemiancoding.com/sketch -->
    <title>Group 16</title>
    <desc>Created with Sketch.</desc>
    <defs></defs>
    <g id="Page-1" stroke="none" stroke-width="1" fill="none" fill-rule="evenodd">
        <g id="Reports" transform="translate(-943.000000, -190.000000)">
            <g id="Group-23" transform="translate(30.000000, 160.000000)">
                <g id="Group-18" transform="translate(893.000000, 0.000000)">
                    <g id="Group-17" transform="translate(20.000000, 30.000000)">
                        <g id="Group-16">
                            <g id="Icon">
                                <rect id="Base" fill="#1DA1F2" x="0" y="0" width="60" height="60" rx="30"></rect>
                                <rect id="Base" stroke="#FFFFFF" stroke-width="2" opacity="0.202955163" x="5" y="5" width="50" height="50" rx="25"></rect>
                            </g>
                            <g id="Twitter_Logo_White_On_Blue" transform="translate(17.000000, 19.000000)" fill-rule="nonzero" fill="#FFFFFF">
                                <g id="Twitter_Logo_White-on-Blue">
                                    <g id="Logo_FIXED">
                                        <path d="M8.49096,22.4266218 C18.67968,22.4266218 24.25248,13.7977578 24.25248,6.31484581 C24.25248,6.06975781 24.25248,5.82577381 24.23628,5.58289381 C25.3204179,4.7812914 26.2562639,3.78876066 27,2.65177381 C25.9889894,3.10971497 24.9164956,3.41003264 23.81832,3.54270181 C24.9747235,2.835018 25.8402134,1.72195408 26.25372,0.410653811 C25.1663301,1.07024448 23.9766978,1.53509108 22.73616,1.78513381 C21.0190494,-0.0812949055 18.2905769,-0.538109896 16.0807132,0.670844451 C13.8708495,1.8797988 12.729177,4.45386142 13.29588,6.94964581 C8.8418474,6.7213933 4.69203384,4.5708827 1.8792,1.03330981 C0.408912577,3.62069359 1.15990691,6.93072268 3.59424,8.59239781 C2.7126805,8.56568934 1.85034172,8.32259476 1.08,7.88362981 L1.08,7.95538981 C1.08072158,10.6509085 2.93949161,12.9725566 5.5242,13.5063018 C4.70865916,13.7336596 3.85298703,13.7668947 3.02292,13.6034538 C3.74862376,15.9101766 5.82830053,17.4903992 8.19828,17.5359018 C6.23671384,19.1117867 3.81354427,19.9672716 1.31868,19.9647018 C0.877935854,19.9638369 0.437620391,19.9365581 0,19.8830058 C2.53328683,21.5448311 5.48090647,22.4263093 8.49096,22.4222058" id="Shape"></path>
                                    </g>
                                </g>
                            </g>
                        </g>
                    </g>
                </g>
            </g>
        </g>
    </g>
</svg>