<?xml version="1.0" encoding="UTF-8"?>
<svg width="29px" height="29px" viewBox="0 0 29 29" version="1.1" xmlns="http://www.w3.org/2000/svg" xmlns:xlink="http://www.w3.org/1999/xlink">
    <!-- Generator: Sketch 43.2 (39069) - http://www.bohemiancoding.com/sketch -->
    <title>Twitter</title>
    <desc>Created with Sketch.</desc>
    <defs></defs>
    <g id="Page-1" stroke="none" stroke-width="1" fill="none" fill-rule="evenodd">
        <g id="Marketing-Channels---Scheduled-Posts" transform="translate(-305.000000, -160.000000)">
            <g id="Twitter" transform="translate(305.000000, 160.000000)">
                <rect id="Base" fill="#2DAAE1" x="0" y="0" width="29" height="29" rx="14.5"></rect>
                <rect id="Base" stroke="#33BFFC" stroke-width="0.96" x="2.48" y="2.48" width="24.1733333" height="24.1733333" rx="12.0866667"></rect>
                <path d="M22.0024576,9.53860169 C21.4138559,9.79978814 20.7816525,9.97635593 20.1169492,10.0557203 C20.795339,9.64949153 21.3150424,9.00576271 21.5604237,8.23961864 C20.9160085,8.62236399 20.2107541,8.89181649 19.4752966,9.03627119 C18.8767797,8.39830508 18.0233051,8 17.0790678,8 C15.2666525,8 13.7967797,9.46927966 13.7967797,11.2827542 C13.7967797,11.5397034 13.8257203,11.7903814 13.8813559,12.0310593 C11.1530085,11.8939407 8.73415254,10.5870339 7.11508475,8.60118644 C6.83237288,9.08618644 6.67055085,9.65008475 6.67055085,10.2517373 C6.67055085,11.3905085 7.25016949,12.3952542 8.13088983,12.9838136 C7.60951798,12.9676573 7.09958847,12.826928 6.64372881,12.5733898 L6.64372881,12.6148729 C6.64372881,14.2055508 7.77512712,15.5319068 9.27699153,15.8335593 C9.00110169,15.9091525 8.7115678,15.9486441 8.4120339,15.9486441 C8.20025424,15.9486441 7.99478814,15.9286017 7.7940678,15.8908475 C8.21182203,17.1946186 9.42419492,18.1436441 10.8602966,18.1704661 C9.73677966,19.0511864 8.32110169,19.5761864 6.78351695,19.5761864 C6.51868644,19.5761864 6.25694915,19.5603814 6,19.5294068 C7.45300847,20.4611017 9.17822034,21.005 11.032161,21.005 C17.0701271,21.005 20.3723305,16.0027966 20.3723305,11.6648305 C20.3723305,11.5224153 20.3691949,11.3810593 20.3623305,11.2402119 C21.005706,10.7748555 21.5610826,10.1986597 22.0024576,9.53860169 L22.0024576,9.53860169 Z" id="Shape" fill="#FFFFFF" fill-rule="nonzero"></path>
            </g>
        </g>
    </g>
</svg>