<?xml version="1.0" encoding="UTF-8"?>
<svg width="29px" height="29px" viewBox="0 0 29 29" version="1.1" xmlns="http://www.w3.org/2000/svg" xmlns:xlink="http://www.w3.org/1999/xlink">
    <!-- Generator: Sketch 42 (36781) - http://www.bohemiancoding.com/sketch -->
    <title>Group 36</title>
    <desc>Created with Sketch.</desc>
    <defs></defs>
    <g id="Page-1" stroke="none" stroke-width="1" fill="none" fill-rule="evenodd">
        <g id="Pricing---Tablet" transform="translate(-982.000000, -192.000000)" fill-rule="nonzero">
            <g id="Group-5" transform="translate(982.000000, 192.000000)">
                <g id="Group-36">
                    <g id="Specials_Icon" fill="#2BBF88">
                        <g id="Group-2">
                            <g id="Page-1">
                                <g id="Home-3-buttons">
                                    <g id="Group-2">
                                        <path d="M28.7954094,15.9853629 L28.3243122,14.84127 C28.2325401,14.6148987 28.2325401,14.3640549 28.3243122,14.1376836 L28.7954094,12.9935907 C29.1686161,12.1003418 28.9605991,11.0786118 28.2814852,10.3933797 L27.4004725,9.52460338 C27.2291645,9.35329536 27.1312743,9.1208059 27.1312743,8.87608017 L27.1312743,7.64021518 C27.1312743,6.67354852 26.5561688,5.80477216 25.6568017,5.43768355 L24.5127089,4.96658649 C24.2863375,4.87481433 24.1089113,4.69738819 24.0171392,4.47101688 L23.5460423,3.3208059 C23.1728355,2.42755697 22.3101772,1.84633333 21.3435105,1.84633333 L20.1076456,1.84633333 C19.8629198,1.84633333 19.6304304,1.74844304 19.4591224,1.57713502 L18.5842278,0.702240505 C18.1314852,0.249497891 17.5319072,0.00477215189 16.8956203,0.00477215189 C16.5835949,0.00477215189 16.2715696,0.0659535865 15.9840169,0.188316456 L14.8399241,0.659413501 C14.6135527,0.751185654 14.3627089,0.751185654 14.1363376,0.659413501 L12.9922447,0.188316456 C12.6985738,0.0659535865 12.3926667,0.00477215189 12.0806414,0.00477215189 C11.4443544,0.00477215189 10.8447764,0.255616033 10.3920337,0.702240505 L9.51713924,1.57713502 C9.34583122,1.74844304 9.11334176,1.84633333 8.86861603,1.84633333 L7.63275105,1.84633333 C6.66608438,1.84633333 5.79730802,2.42755697 5.43021941,3.3208059 L4.95912235,4.46489874 C4.86735022,4.69127004 4.68992405,4.86869621 4.46355275,4.96046834 L3.31945991,5.4315654 C2.42621098,5.80477216 1.84498734,6.66743037 1.84498734,7.63409704 L1.84498734,8.86996203 C1.84498734,9.11468776 1.74709705,9.34717721 1.57578903,9.51848523 L0.700894514,10.3933797 C0.0156624473,11.0786118 -0.186236287,12.1003418 0.180852321,12.9935907 L0.651949366,14.1376836 C0.743721518,14.3640549 0.743721518,14.6148987 0.651949366,14.84127 L0.180852321,15.9853629 C-0.186236287,16.8786118 0.0156624473,17.9003418 0.69477637,18.5855738 L1.58190717,19.4604683 C1.75321519,19.6317764 1.85110549,19.8642658 1.85110549,20.1089916 L1.85110549,21.3448565 C1.85110549,22.3115232 2.42621098,23.1802996 3.32557806,23.5473882 L4.46967089,24.0184852 C4.6960422,24.1102573 4.87346834,24.2876834 4.9652405,24.5140549 L5.43633756,25.6581477 C5.80954431,26.5513967 6.67220253,27.1326203 7.63886919,27.1326203 L8.87473418,27.1326203 C9.11945991,27.1326203 9.35194937,27.2305105 9.52325739,27.4018185 L10.3981519,28.2767131 C10.8508945,28.7294558 11.4504726,28.9741815 12.0867595,28.9741815 C12.3987848,28.9741815 12.7108101,28.913 12.9983629,28.790637 L14.1424557,28.3195401 C14.368827,28.227768 14.6196709,28.227768 14.8460422,28.3195401 L15.990135,28.790637 C16.2838059,28.913 16.5897131,28.9741815 16.9017384,28.9741815 C17.5380253,28.9741815 18.1376034,28.7233375 18.590346,28.2767131 L19.4652405,27.4018185 C19.6365485,27.2305105 19.869038,27.1326203 20.1137637,27.1326203 L21.3496287,27.1326203 C22.3162954,27.1326203 23.1850717,26.5513967 23.5521603,25.6581477 L24.0232573,24.5140549 C24.1150296,24.2876834 24.2924558,24.1102573 24.518827,24.0184852 L25.6629198,23.5473882 C26.5561688,23.1741815 27.1373924,22.3115232 27.1373924,21.3448565 L27.1373924,20.1089916 C27.1373924,19.8642658 27.2352828,19.6317764 27.4065906,19.4604683 L28.2814852,18.5855738 C28.9605991,17.9003418 29.1624978,16.8786118 28.7954094,15.9853629 Z" id="Shape"></path>
                                    </g>
                                </g>
                            </g>
                        </g>
                    </g>
                    <g id="noun_705325_cc" transform="translate(6.674603, 8.746032)" fill="#FFFFFF">
                        <g id="Group">
                            <g transform="translate(0.000000, 0.183500)" id="Shape">
                                <path d="M14.4938785,0.104474802 C14.3043127,0.129771368 14.1286095,0.218398126 13.9948098,0.356210913 C10.9967189,3.34606488 7.96925425,6.06381944 4.93138045,9.05910516 L1.40225196,6.51475794 C1.15231283,6.3348241 0.826199738,6.30309329 0.546779626,6.43152047 C0.267359514,6.55994764 0.0770925547,6.82901724 0.0476640661,7.13735413 C0.0182355775,7.44569102 0.154117459,7.74644088 0.404114611,7.92629266 L4.51250498,10.8841776 C4.85113448,11.1264525 5.31329831,11.0885471 5.60868794,10.7942718 C8.78051177,7.63122917 11.9727546,4.79534563 15.1890384,1.58791974 C15.4578889,1.33134455 15.5327529,0.929477928 15.3745796,0.591942187 C15.2164064,0.254406445 14.8610526,0.0577184049 14.4938785,0.104474802 L14.4938785,0.104474802 Z"></path>
                            </g>
                        </g>
                    </g>
                </g>
            </g>
        </g>
    </g>
</svg>