<svg xmlns="http://www.w3.org/2000/svg" width="30" height="30" viewBox="0 0 30 30">
    <g fill="none" fill-rule="evenodd">
        <g>
            <rect width="30" height="30" fill="#2BBF88" rx="15"/>
            <rect width="25" height="25" x="2.5" y="2.5" stroke="#3AD59B" rx="12.5"/>
        </g>
        <g fill="#FFF" fill-rule="nonzero">
            <path d="M22.135 9.016H7.882a.868.868 0 0 0-.866.86v10.232c0 .47.392.86.866.86h14.253c.473 0 .865-.39.865-.86V9.876c0-.47-.392-.86-.865-.86zm-10.008.892h5.763c.13 0 .228.097.228.227s-.098.227-.228.227h-5.763a.222.222 0 0 1-.229-.227c0-.13.098-.227.229-.227zm-2.498 0c.13 0 .228.097.228.227s-.098.227-.228.227a.222.222 0 0 1-.229-.227c0-.13.098-.227.229-.227zm-.768 0c.13 0 .229.097.229.227s-.098.227-.229.227a.222.222 0 0 1-.228-.227c0-.13.114-.227.228-.227zm-.75 0c.13 0 .228.097.228.227s-.098.227-.229.227a.222.222 0 0 1-.228-.227c0-.13.098-.227.228-.227zm14.432 10.216c0 .227-.18.406-.408.406H7.882a.403.403 0 0 1-.409-.406v-8.87H22.56v8.87h-.016z"/>
            <path d="M14.216 12.99h5.976a.215.215 0 0 0 .212-.212.215.215 0 0 0-.212-.21h-5.976a.215.215 0 0 0-.212.21c0 .13.098.211.212.211zM14.216 14.124h5.976a.215.215 0 0 0 .212-.21.215.215 0 0 0-.212-.211h-5.976a.215.215 0 0 0-.212.21c0 .13.098.211.212.211zM14.216 15.26h5.976a.215.215 0 0 0 .212-.211.215.215 0 0 0-.212-.211h-5.976a.215.215 0 0 0-.212.21c0 .114.098.211.212.211zM10.037 15.422h2.775c.245 0 .441-.195.441-.438v-2.14a.438.438 0 0 0-.44-.439h-2.776a.438.438 0 0 0-.441.438v2.14c.016.244.212.439.44.439zM15.784 18.714H9.808a.215.215 0 0 0-.212.21c0 .114.098.211.212.211h5.976a.215.215 0 0 0 .212-.21c0-.13-.098-.211-.212-.211zM15.784 17.578H9.808a.215.215 0 0 0-.212.211c0 .114.098.211.212.211h5.976a.215.215 0 0 0 .212-.21c0-.13-.098-.212-.212-.212zM15.784 16.443H9.808a.215.215 0 0 0-.212.211c0 .114.098.21.212.21h5.976a.215.215 0 0 0 .212-.21.215.215 0 0 0-.212-.21zM19.963 16.281h-2.775a.438.438 0 0 0-.441.438v2.14c0 .244.196.438.44.438h2.776c.245 0 .441-.194.441-.438v-2.14c-.016-.243-.212-.438-.44-.438z"/>
        </g>
    </g>
</svg>
