<?xml version="1.0" encoding="UTF-8"?>
<svg width="16px" height="16px" viewBox="0 0 16 16" version="1.1" xmlns="http://www.w3.org/2000/svg" xmlns:xlink="http://www.w3.org/1999/xlink">
    <!-- Generator: Sketch 44.1 (41455) - http://www.bohemiancoding.com/sketch -->
    <title>White Trash Icon</title>
    <desc>Created with Sketch.</desc>
    <defs></defs>
    <g id="PRODUCT-EDITING" stroke="none" stroke-width="1" fill="none" fill-rule="evenodd">
        <g id="Store-Manager-Popup" transform="translate(-647.000000, -765.000000)" fill="#FFFFFF">
            <g id="Group-50" transform="translate(375.000000, 215.000000)">
                <g id="Group" transform="translate(251.000000, 540.000000)">
                    <g id="Green-Button">
                        <g id="Group-2" transform="translate(21.000000, 8.000000)">
                            <g id="White-Trash-Icon" transform="translate(0.000000, 2.000000)">
                                <path d="M5.9999,12.0001 C5.4479,12.0001 4.9999,11.5521 4.9999,11.0001 L4.9999,8.0001 C4.9999,7.4481 5.4479,7.0001 5.9999,7.0001 C6.5519,7.0001 6.9999,7.4481 6.9999,8.0001 L6.9999,11.0001 C6.9999,11.5521 6.5519,12.0001 5.9999,12.0001 L5.9999,12.0001 Z M9.9999,12.0001 C9.4479,12.0001 8.9999,11.5521 8.9999,11.0001 L8.9999,8.0001 C8.9999,7.4481 9.4479,7.0001 9.9999,7.0001 C10.5519,7.0001 10.9999,7.4481 10.9999,8.0001 L10.9999,11.0001 C10.9999,11.5521 10.5519,12.0001 9.9999,12.0001 L9.9999,12.0001 Z M10.9999,5.0001 L4.9999,5.0001 L2.9999,5.0001 L3.9999,13.0001 C3.9999,13.5521 4.4479,14.0001 4.9999,14.0001 L10.9999,14.0001 C11.5519,14.0001 11.9999,13.5521 11.9999,13.0001 L12.9999,5.0001 L10.9999,5.0001 Z M7.9999,2.0001 C7.4479,2.0001 6.9999,2.4481 6.9999,3.0001 L8.9999,3.0001 C8.9999,2.4481 8.5519,2.0001 7.9999,2.0001 L7.9999,2.0001 Z M14.9999,5.0001 L13.9999,14.0001 C13.9999,15.1051 13.1049,16.0001 11.9999,16.0001 L3.9999,16.0001 C2.8949,16.0001 1.9999,15.1051 1.9999,14.0001 L0.9999,5.0001 C0.4479,5.0001 -0.0001,4.5521 -0.0001,4.0001 C-0.0001,3.4481 0.4479,3.0001 0.9999,3.0001 L4.9999,3.0001 L4.9999,1.0001 C4.9999,0.4481 5.4479,0.000100000001 5.9999,0.000100000001 L9.9999,0.000100000001 C10.5519,0.000100000001 10.9999,0.4481 10.9999,1.0001 L10.9999,3.0001 L14.9999,3.0001 C15.5519,3.0001 15.9999,3.4481 15.9999,4.0001 C15.9999,4.5521 15.5519,5.0001 14.9999,5.0001 L14.9999,5.0001 Z" id="Trash-Icon"></path>
                            </g>
                        </g>
                    </g>
                </g>
            </g>
        </g>
    </g>
</svg>